<?xml version="1.0" encoding="UTF-8" standalone="no"?>
<!-- Created with Inkscape (http://www.inkscape.org/) -->

<svg
   version="1.1"
   id="svg1"
   width="1418"
   height="1274"
   viewBox="0 0 1418 1274"
   sodipodi:docname="contornoN.svg"
   inkscape:version="1.4.4 (dcaf3e7, 2026-05-05)"
   xmlns:inkscape="http://www.inkscape.org/namespaces/inkscape"
   xmlns:sodipodi="http://sodipodi.sourceforge.net/DTD/sodipodi-0.dtd"
   xmlns="http://www.w3.org/2000/svg"
   xmlns:svg="http://www.w3.org/2000/svg">
  <defs
     id="defs1" />
  <sodipodi:namedview
     id="namedview1"
     pagecolor="#505050"
     bordercolor="#eeeeee"
     borderopacity="1"
     inkscape:showpageshadow="0"
     inkscape:pageopacity="0"
     inkscape:pagecheckerboard="0"
     inkscape:deskcolor="#505050"
     inkscape:zoom="0.3355573"
     inkscape:cx="1156.2854"
     inkscape:cy="633.27485"
     inkscape:window-width="1920"
     inkscape:window-height="1057"
     inkscape:window-x="-8"
     inkscape:window-y="-8"
     inkscape:window-maximized="1"
     inkscape:current-layer="g1" />
  <g
     inkscape:groupmode="layer"
     inkscape:label="Image"
     id="g1">
    <path
       id="path10"
       style="fill:#000000;fill-opacity:1"
       d="m 716.60547,243.00391 c -12.12767,-0.29361 -24.13507,0.24431 -36.08399,1.05468 -1.06055,0.0687 -2.12162,0.0165 -3.18164,0.0937 -14.80057,1.12378 -29.45971,2.94146 -43.87109,5.69141 -9.61872,1.81771 -19.1661,4.0044 -28.61328,6.5625 -0.94958,0.25713 -1.7998,0.7011 -2.74609,0.96484 -16.39466,4.54895 -32.34522,10.2525 -47.91993,16.83008 -3.34428,1.41338 -6.59141,2.9364 -9.88281,4.43555 -15.06539,6.85486 -29.78646,14.38378 -43.84961,23.04883 -0.37361,0.23069 -0.8011,0.38532 -1.17383,0.61718 -0.54512,0.32144 -1.08918,0.64463 -1.63281,0.96875 -87.52746,52.18491 -155.43217,139.33613 -177.42187,258.31641 -0.0831,0.42027 -0.22479,0.81157 -0.30664,1.23242 -1.97213,10.13954 -2.91218,20.8335 -4.0254,31.42969 -0.57496,5.26666 -1.66659,10.19063 -2.0664,15.57031 -1.08157,14.55325 -1.12153,30.50483 -0.22656,46.73828 1.34243,27.66287 5.51191,54.89614 12.26757,79.87696 0.13692,0.50713 0.20486,1.13194 0.34375,1.63476 0.006,0.0209 0.0118,0.0416 0.0176,0.0625 0.004,0.0155 0.007,0.0314 0.0117,0.0469 0.89417,3.25303 1.47423,6.0797 1.61524,7.7207 -0.21307,2.41693 -2.76547,1.77746 -9.6543,0.0195 -13.54791,-3.45724 -26.39535,-5.0917 -40.06836,-5.0957 -15.83125,-0.005 -20.66478,0.94455 -46.31641,9.08789 -12.47356,3.95984 -21.94123,6.90141 -29.49023,9.14062 -0.26194,-0.10894 -0.38234,-0.073 -0.35156,0.10352 -2.38009,0.70467 -4.56897,1.34012 -6.59961,1.91406 -0.30492,-0.14011 -0.44251,-0.0988 -0.39453,0.11133 -5.94217,1.6734 -10.53101,2.82547 -14.66407,3.71875 -24.62203,5.32155 -48.96772,2.55311 -57.14453,-4.75781 -0.14751,-0.29923 -0.39783,-0.54171 -0.70508,-0.6836 -2.12637,-2.24891 -2.78805,-4.88838 -1.57226,-7.82421 6.96307,-16.81415 55.13787,-43.68392 126.4082,-70.50391 34.11986,-12.83976 27.99247,-12.2133 -16.98633,1.73633 -86.42999,26.8052 -143.157985,52.35251 -165.085935,74.3457 -10.32889,10.35962 -12.80041,18.11651 -7.162109,23.78906 0.112467,0.32491 0.279628,0.49209 0.443359,0.42774 1.436957,1.32277 3.33297,2.52725 5.689453,3.62304 -0.105637,0.32352 0.152221,0.44441 0.65625,0.29688 4.095798,1.80527 9.490814,3.30344 16.203125,4.52539 15.892345,2.89315 22.310237,4.13511 26.927737,5.70117 0.0109,0.0839 0.0812,0.10869 0.20898,0.0723 2.29724,0.79326 4.16735,1.67477 6.58985,2.89844 5.56932,2.81322 7.6763,4.33822 12.23437,9.77343 -0.13211,0.29169 -0.0309,0.40312 0.25195,0.30078 0.78654,0.94387 1.64583,2.00091 2.60743,3.19922 0.0923,0.11502 0.18352,0.2297 0.27539,0.34375 -0.18182,0.30836 0.13008,0.82902 0.74804,1.21094 0.1642,0.10148 0.3026,0.17559 0.41407,0.2207 0.96865,1.18308 1.91369,2.31179 2.83984,3.39063 -0.007,0.12098 -0.0336,0.22451 -0.0801,0.30664 -0.32016,0.56538 -0.25418,0.73527 0.14649,0.37695 0.0993,-0.0888 0.36267,0.009 0.7539,0.26367 3.73099,4.27804 7.16166,7.73674 10.56055,10.61329 1.57588,1.70501 2.17526,2.32204 2.27539,2.32031 h 0.002 l 0.002,-0.002 h 0.002 0.002 l 0.002,-0.002 0.002,-0.002 0.002,-0.002 v -0.002 -0.002 c 2.3e-4,-9.6e-4 -1.4e-4,-0.005 0,-0.006 0.003,-0.073 -0.1579,-0.35794 -0.38086,-0.74609 1.69184,1.32848 3.38856,2.52374 5.12305,3.61523 0.50409,0.5043 0.82014,0.69502 0.86719,0.53516 1.14283,0.69157 2.30483,1.34174 3.49414,1.95703 0.10732,0.18285 0.28354,0.27404 0.49609,0.2539 0.2157,0.10919 0.43275,0.21712 0.65039,0.32422 0.27033,0.13303 0.53886,0.26389 0.80664,0.39258 0.1044,0.236 0.32223,0.34068 0.59375,0.2832 0.52354,0.24693 1.02612,0.44787 1.54102,0.67774 h 0.002 l 0.002,0.002 v 0.002 h 0.002 c 0.0747,0.0546 0.16764,0.0952 0.27539,0.1211 h 0.002 v 0.002 h 0.002 0.002 c 0.61845,0.27304 1.2475,0.57049 1.85547,0.81836 -0.39591,0.74263 -0.10555,0.85408 0.99023,0.43359 0.0174,-0.007 0.0355,-0.0113 0.0527,-0.0176 0.55254,0.21378 1.10224,0.41528 1.64844,0.60742 0.11854,0.29227 0.52512,0.42504 1.10742,0.37695 0.78228,0.25553 1.55904,0.4879 2.33399,0.69727 0.0901,0.16211 0.37076,0.2358 0.84765,0.2207 1.81995,0.45254 3.63151,0.77412 5.46094,0.96094 0.78807,0.28411 2.12041,0.45312 3.77344,0.45312 2.0176,0 3.21911,-0.13768 3.70508,-0.44336 2.96961,-0.28466 6.07504,-0.90825 9.42187,-1.89257 0.6448,0.0939 1.08825,-0.0389 1.24805,-0.37891 0.76716,-0.24164 1.54574,-0.50257 2.33984,-0.78125 0.21973,-0.0115 0.40403,-0.0758 0.53125,-0.1875 0.70366,-0.25228 1.41791,-0.51945 2.14453,-0.80078 0.49344,0.13463 0.70977,0.0487 0.64258,-0.25196 1.25011,-0.49401 2.53677,-1.02941 3.86133,-1.60937 0.15811,0.003 0.29097,-0.0576 0.38672,-0.17188 0.70147,-0.30981 1.41465,-0.63081 2.13867,-0.96484 0.50306,0.11809 0.76206,0.005 0.64258,-0.29883 0.59468,-0.27761 1.1961,-0.56358 1.80664,-0.85742 -0.07,0.15144 -0.093,0.2441 -0.0762,0.2793 v 0.002 l 0.002,0.002 0.002,0.002 0.002,0.002 0.002,0.002 0.002,0.002 0.002,0.002 c 8.2e-4,3.2e-4 0.005,0.002 0.006,0.002 0.0723,0.0138 0.29699,-0.18513 0.63671,-0.57422 0.83255,-0.40427 1.68164,-0.82353 2.54493,-1.25781 0.14942,0.0567 0.27541,-0.0101 0.35547,-0.17969 1.81569,-0.91749 3.70025,-1.89993 5.6621,-2.95117 0.2295,0.0287 0.33007,-0.0213 0.27149,-0.14648 3.96558,-2.12984 8.2438,-4.53399 12.89258,-7.22461 26.38794,-15.27283 33.42604,-16.34394 52.28125,-7.05469 0.067,0.34797 0.35398,0.48603 0.72461,0.35938 0.0866,0.0432 0.17264,0.0853 0.25976,0.1289 0.34585,0.17309 0.69161,0.3455 1.03516,0.51367 0.0936,0.33063 0.36956,0.46577 0.71875,0.34961 0.42428,0.20438 0.84852,0.40473 1.26953,0.60157 0.0845,0.38894 0.40358,0.53804 0.80273,0.37109 0.41065,0.18821 0.81879,0.37369 1.22657,0.55469 0.11086,0.22274 0.38948,0.33935 0.76172,0.33398 0.54235,0.23574 1.08333,0.46459 1.62109,0.6875 -0.14646,0.40689 0.10808,0.51166 0.75,0.30664 0.65619,0.26573 1.30876,0.52297 1.95898,0.76953 0.13093,0.13904 0.34362,0.21765 0.60938,0.22852 0.56837,0.21085 1.13474,0.41513 1.69922,0.61133 -0.4468,0.79594 -0.0777,0.91526 1.38476,0.46679 0.54416,0.17848 1.08758,0.35084 1.62891,0.51563 -0.31701,0.61922 0.15165,0.75882 1.55664,0.45508 0.80353,0.22611 1.60489,0.43887 2.4043,0.63476 -0.23191,0.5763 0.32922,0.71158 2.00781,0.46094 1.49642,0.32041 2.98882,0.58779 4.48242,0.80273 0.34102,0.1171 0.88993,0.18534 1.61328,0.21094 10.185,1.20723 20.49749,-0.0162 32.46875,-3.5332 5.775,-1.69664 11.00193,-3.08684 11.61524,-3.08985 0.61331,-0.003 3.91819,5.05469 7.34375,11.24219 34.75186,62.77136 82.53424,109.84629 136.83789,142.97266 11.81004,7.28402 22.91343,13.71912 23.96289,13.31641 0.11937,-0.0458 0.2266,-0.0787 0.32617,-0.10352 0.19144,0.0985 0.37679,0.21047 0.56836,0.30859 -0.0115,0.0239 -0.0249,0.0481 -0.041,0.0742 -0.53967,0.87317 9.46017,5.976 14.63868,7.86719 1.15946,0.53206 2.21505,1.31773 3.3789,1.83789 0.34665,0.70793 1.61029,1.28645 2.66406,1.17773 1.45633,0.63775 2.91605,1.26552 4.37891,1.88477 0.39361,0.68897 1.62686,1.23609 2.6543,1.11328 1.36027,0.56397 2.7242,1.11997 4.08984,1.66797 -0.0274,0.4109 0.25243,0.722 0.77344,0.7813 0.44357,0.05 1.09393,0.1292 1.7207,0.2089 1.50432,0.5917 3.011,1.1736 4.52149,1.7461 -0.0122,0.022 -0.0234,0.044 -0.0371,0.066 -0.4861,0.7866 -0.17945,0.9606 0.93945,0.5313 0.11954,-0.046 0.24078,-0.085 0.36328,-0.1192 1.25774,0.4718 2.51746,0.9361 3.7793,1.3946 -0.0241,0.077 -0.06,0.1565 -0.10938,0.2363 -0.38543,0.6236 0.20778,0.7334 1.59375,0.2988 0.50223,0.1802 1.00496,0.361 1.50782,0.5391 -0.4852,0.8142 -0.0962,0.9524 1.39843,0.4922 0.54656,0.1912 1.09335,0.3796 1.64063,0.5683 -0.008,0.2566 0.29398,0.3598 0.85742,0.295 0.71588,0.2451 1.43135,0.4876 2.14844,0.7285 0.004,0.247 0.28774,0.3434 0.83008,0.2793 0.72299,0.2411 1.44573,0.48 2.16992,0.7168 -1.2e-4,0.2557 0.29383,0.3508 0.85937,0.2793 0.7138,0.2316 1.42765,0.46 2.14258,0.6875 -0.026,0.2931 0.29828,0.3953 0.94531,0.2988 0.68747,0.2168 1.37402,0.4335 2.0625,0.6465 -0.0781,0.3581 0.29418,0.4713 1.07813,0.3301 0.6478,0.1983 1.29663,0.3968 1.94531,0.5918 -0.16151,0.4495 0.27342,0.5789 1.24609,0.371 0.59853,0.1778 1.19763,0.3544 1.79688,0.5293 -0.28089,0.5665 0.22716,0.7144 1.4375,0.4161 0.543,0.1562 1.08532,0.3128 1.62891,0.4668 -0.30363,0.5603 0.37187,0.7473 1.79882,0.5039 0.71202,0.198 1.42376,0.3939 2.13672,0.5879 -0.0289,0.054 -0.0627,0.1101 -0.0996,0.1699 -0.5355,0.8664 -0.40914,1.058 0.37696,0.5722 0.29392,-0.1816 0.76593,-0.2787 1.32812,-0.3085 1.789,0.4787 3.58032,0.9449 5.375,1.3984 0.029,0.089 0.0194,0.1773 -0.0352,0.2656 -0.26321,0.4258 0.70052,0.5488 2.14062,0.2734 0.011,-0 0.0223,-0 0.0332,-0.01 0.65669,0.1621 1.31331,0.3218 1.97071,0.4805 -0.0232,0.05 -0.0516,0.1025 -0.0859,0.1582 -0.4318,0.6991 -0.17061,0.9317 0.67969,0.6054 0.35035,-0.1344 1.77304,-0.02 3.82617,0.2774 2.3942,0.3469 5.64514,0.9418 9.04883,1.6777 1.56103,0.3375 4.60952,0.6287 6.46679,0.9824 12.71312,2.4958 25.65957,4.5638 38.97461,5.9668 1.96244,0.2068 3.93058,0.4009 5.90625,0.584 1.03914,0.096 4.42016,-0.117 5.77344,-0.043 20.05166,1.2122 40.16472,1.281 60.16602,-0.4433 h 0.002 c 4.35958,-0.2619 8.07443,-0.5633 10.7793,-0.8965 6.21001,-0.765 12.3669,-1.6604 18.4707,-2.6836 h 0.002 0.002 0.002 c 13.03374,-2.1851 25.82176,-4.9565 38.34375,-8.3027 0.002,-6e-4 0.004,-0 0.006,-0 1.6165,-0.432 3.13652,-1.0664 4.74414,-1.5176 9.05826,-2.4634 17.89782,-5.4718 26.77344,-8.5625 1.71673,-0.6159 3.52909,-1.0349 5.23437,-1.6738 h 0.002 v -0 h 0.002 c 1.73058,-0.6484 3.34774,-1.5156 5.0664,-2.1875 110.24959,-41.80949 203.57965,-131.81788 239.00195,-268.62113 3.1574,-12.19406 3.9848,-14.63602 7.5254,-19.36329 0.1061,-0.0163 0.1706,-0.10276 0.1855,-0.24609 0.3438,-0.4548 0.7113,-0.93185 1.1094,-1.44141 9.6467,-12.34632 16.4077,-26.08399 28.7676,-58.45117 11.3218,-29.64867 20.2825,-39.88957 37.1953,-42.51367 11.5514,-1.79227 19.5326,-0.40723 57.8457,10.03125 63.2683,17.23757 96.418,12.02608 112.2207,-17.64062 1.7713,-3.32543 5.7369,-13.65766 8.8125,-22.96094 2.559,-7.74046 4.8867,-14.14946 7.2149,-19.58008 0.086,-0.011 0.1153,-0.079 0.086,-0.20117 1.5822,-3.67404 3.1655,-6.89877 4.8262,-9.7832 0.1547,0.0264 0.21,-0.068 0.1523,-0.26172 1.2119,-2.08405 2.4658,-3.9892 3.7891,-5.75977 0.2397,0.0769 0.3225,-0.0287 0.2148,-0.28711 4.6999,-6.20093 10.2909,-10.74114 18.0254,-15.49609 0.1921,-0.11809 0.3839,-0.2356 0.5742,-0.35352 0.5574,0.29451 0.7166,0.2202 0.3418,-0.19336 -0,-0.004 -0.01,-0.007 -0.012,-0.0117 1.548,-0.96353 3.0376,-1.92279 4.4688,-2.87695 0.3455,0.13485 0.5718,-0.0231 0.5957,-0.39844 0.8496,-0.57225 1.678,-1.14295 2.4863,-1.71289 0.052,-0.0277 0.095,-0.0594 0.1308,-0.0937 1.3199,-0.93298 2.5861,-1.86372 3.7969,-2.79297 0.1178,0.0389 0.22,0.0954 0.3047,0.17188 0.4355,0.39315 0.4887,0.18841 0.1192,-0.45703 -0.01,-0.01 -0.01,-0.0212 -0.014,-0.0312 2.491,-1.9307 4.7491,-3.85732 6.7851,-5.79297 0.028,-0.002 0.054,-0.002 0.08,-0.002 0.5133,-8e-4 0.9395,-0.45858 0.9942,-1.04102 9.7399,-9.65506 14.0058,-19.59565 14.0058,-31.46094 0,-14.00822 -5.6226,-22.48711 -19.5859,-29.53515 -30.7839,-15.53828 -122.8484,-11.49705 -217.4141,9.54492 -18.8371,4.19148 -68.2566,16.64612 -73.1074,18.42383 l -3.8926,1.42578 3.127,0.0703 c 1.7198,0.0387 12.5198,-1.48163 24,-3.37891 111.8861,-18.4909 172.7147,-17.7313 181.0683,2.26172 4.2507,10.17347 -3.3883,17.85947 -24.9004,25.04883 -10.4444,3.49054 -16.8778,6.55978 -22.8652,12.52148 -0.093,-0.009 -0.1716,-0.0327 -0.2324,-0.0703 -0.5785,-0.35759 -0.6948,-0.11719 -0.2735,0.56446 0,0.004 0,0.006 0.01,0.01 -4.3376,4.4538 -8.4903,10.48608 -13.832,19.36914 -0.4472,-0.23977 -0.5575,-0.0587 -0.2735,0.45313 -0.8314,1.38708 -1.6917,2.84221 -2.5859,4.37109 -4.2391,7.2479 -8.6633,12.25398 -15.209,16.14844 -0.3066,-0.14301 -0.4158,-0.0786 -0.3262,0.1914 -2.4782,1.44506 -5.2592,2.7374 -8.4433,3.93555 -0.5424,-0.31151 -0.7095,-0.2518 -0.5098,0.18945 -4.6158,1.69964 -10.0686,3.21552 -16.6562,4.71875 -0.3258,-0.15961 -0.48,-0.1204 -0.4317,0.0977 -0.8698,0.19696 -1.7582,0.39275 -2.6679,0.58984 -20.7825,4.50269 -69.5709,8.70176 -91.459,7.8711 l -8.4649,-0.32227 -0.7304,-3.5 c -0.4014,-1.925 -1.9241,-9.575 -3.3848,-17 -10.8645,-55.22433 -34.5426,-107.03628 -67.7266,-152.0039 0.6657,-0.072 0.1099,-0.87728 -1.4785,-2.12305 -0.084,-0.0656 -0.1632,-0.12708 -0.2383,-0.18555 -1.0923,-1.45815 -2.1943,-2.91016 -3.3066,-4.35351 -0.3666,-0.56876 -1.1595,-1.65301 -2.3555,-3.23047 -34.33699,-45.29021 -76.70714,-79.97752 -123.49998,-104.45117 -17.10715,-9.34446 -35.121,-16.98574 -53.54492,-23.6875 -0.62319,-0.21061 -1.21912,-0.40793 -1.64648,-0.52149 -3.7969,-1.36174 -7.70943,-2.41787 -11.55469,-3.66015 -3.11337,-1.02597 -6.19106,-2.14655 -9.33399,-3.0918 0.0793,-0.083 0.0726,-0.1833 -0.0391,-0.29492 -0.28182,-0.28186 -0.94656,-0.34963 -1.58203,-0.1875 -1.21717,-0.36014 -2.43887,-0.70665 -3.66016,-1.05469 -0.5659,-0.1577 -1.10895,-0.37421 -1.67578,-0.5293 0.0251,-0.0682 0.001,-0.14544 -0.082,-0.22851 -0.25078,-0.25083 -0.80452,-0.33172 -1.37109,-0.23242 -2.72039,-0.73243 -5.2883,-1.87109 -8.0293,-2.54297 -26.2101,-6.42475 -52.37371,-9.76411 -78.26367,-10.86719 -0.63103,-0.0285 -1.25355,-0.12103 -1.88477,-0.14649 -1.79136,-0.0678 -3.60824,-0.38053 -5.39648,-0.42382 z m 415.09963,187.86132 c -0.5827,-0.0277 -1.1714,-0.0247 -1.7637,0.008 -6.0919,0.33445 -12.5796,3.83702 -17.1289,10.11718 -5.3189,7.34253 -3.6638,14.64716 4.0098,17.70704 15.1295,6.03292 34.8961,-11.52651 25.5195,-22.66993 -2.7671,-3.28854 -6.558,-4.968 -10.6367,-5.16211 z m 82.6387,238.98047 c -1.0567,6.3e-4 -2.1795,0.24057 -2.7715,0.71875 -1.5238,0.10991 -3.0249,0.31484 -4.4961,0.61328 -1.3901,-0.21575 -2.2559,-0.0215 -2.2559,0.53321 v 0.002 c -0.515,0.14061 -1.0243,0.29331 -1.5312,0.45703 -0.8089,-0.29772 -1.4671,-0.0722 -1.4688,0.50977 -0.4625,0.17246 -0.9201,0.35501 -1.375,0.54687 -0.038,-0.0125 -0.076,-0.0261 -0.1152,-0.041 -0.8504,-0.32633 -1.7558,0.11429 -2.1055,1.02539 -0.01,0.0185 -0.014,0.0366 -0.022,0.0547 -0.6175,0.31292 -1.2275,0.64459 -1.8281,0.99415 -0.4303,0.13373 -1.1659,0.61085 -2.0703,1.30078 -4.391,2.9656 -8.257,6.95102 -11.4004,11.8164 -0.4839,0.28968 -0.7508,0.71911 -0.7012,1.11914 -0.2886,0.47552 -0.5706,0.96004 -0.8457,1.45118 -0.1157,0.0833 -0.1821,0.20255 -0.1933,0.34765 -0.2813,0.51194 -0.5559,1.03222 -0.8223,1.56055 -0.3726,0.0811 -0.4916,0.2945 -0.2695,0.54687 -0.3951,0.80764 -0.7733,1.63434 -1.1328,2.47852 -0.478,0.60296 -0.775,1.35167 -0.795,1.9707 -0.2524,0.6637 -0.4939,1.33944 -0.7246,2.02344 -0.3144,0.14111 -0.4479,0.54872 -0.3476,1.06445 -0.2001,0.63379 -0.3911,1.27753 -0.5723,1.92774 -0.434,0.18018 -0.6902,0.87622 -0.5879,1.70312 0.018,0.14288 0.028,0.30136 0.029,0.46875 -0.2439,1.04749 -0.4454,2.08364 -0.6035,3.10938 -5e-4,0.001 -0,0.003 -0,0.004 -0.6265,1.44896 -0.7141,4.21942 -0.4062,7.36328 0.1649,3.43638 0.8452,6.68789 2,9.69922 0.4604,1.4018 0.9773,2.6688 1.5371,3.69727 1.6629,3.05528 4.0366,5.83579 6.9453,8.23047 5.1988,4.44015 12.17,7.49191 20.5645,8.66797 5.4775,0.76739 11.0186,0.86514 16.3964,0.38476 5.3347,-0.42703 10.5296,-1.36644 14.9473,-2.76758 6.1513,-1.95096 11.3097,-4.52 15.4395,-7.56054 5.4399,-3.83949 9.4085,-8.53493 11.1367,-13.77149 1.1712,-3.54883 1.4152,-7.31355 0.8691,-11.1289 -0.7266,-6.42686 -3.9484,-13.15807 -9.5449,-19.74024 -1.2693,-1.51899 -2.6274,-2.99582 -4.0957,-4.41211 -0.1859,-0.17937 -0.3142,-0.36401 -0.5039,-0.54297 -3.1065,-2.93052 -6.0376,-5.2481 -7.2852,-5.81445 -0.6206,-0.42512 -1.2492,-0.83987 -1.8886,-1.24414 -0.5129,-0.5834 -1.5009,-1.31027 -2.627,-1.89258 -1.0661,-0.55131 -2.0067,-0.92588 -2.5391,-1.0332 -0.7202,-0.36292 -1.4483,-0.71199 -2.1855,-1.04688 -0.7616,-0.71237 -1.8051,-1.14575 -2.5469,-1.08593 -0.5808,-0.23179 -1.1664,-0.45448 -1.7558,-0.66797 -0.1146,-0.3747 -0.5713,-0.53277 -1.1504,-0.40235 -0.6232,-0.21096 -1.2492,-0.41188 -1.8809,-0.60156 -0.1518,-0.2692 -0.5808,-0.38901 -1.1504,-0.33203 -0.9625,-0.26689 -1.9329,-0.50761 -2.9121,-0.72266 -0.2239,-0.28584 -0.7552,-0.3921 -1.5781,-0.31835 -1.4839,-0.27139 -2.9553,-0.45635 -4.4102,-0.55469 -0.3219,-0.4724 -1.3106,-0.70962 -2.3671,-0.70899 z m -930.68169,13.18164 c -8.87106,0.22904 -13.00596,12.99562 -4.52539,17.17774 3.80205,1.87495 4.13437,1.897 8.9043,0.57226 10.16982,-2.82443 8.28671,-15.86336 -2.54493,-17.62109 -0.63117,-0.10243 -1.24258,-0.14418 -1.83398,-0.12891 z M 82.501953,814.83008 c -4.518824,0.21248 -8.362669,1.57691 -10.238281,4.43945 -0.412355,0.62933 -0.694901,1.29942 -0.855469,1.99805 -0.345198,0.14436 -0.578143,0.79839 -0.572265,1.74414 0.0099,1.49327 0.127444,1.90453 0.601562,1.41992 1.192152,5.40142 7.810035,11.34445 16.101562,13.29688 6.27024,1.47647 11.673844,1.25071 15.466798,-0.37305 0.27112,0.0267 0.4209,-0.039 0.43164,-0.19336 0.88791,-0.41918 1.6801,-0.92069 2.36523,-1.49805 0.088,0.0109 0.17672,0.0247 0.26758,0.0391 0.4125,0.0652 0.69793,-0.22031 0.63281,-0.63281 -0.0126,-0.08 -0.0249,-0.15897 -0.0352,-0.23828 1.095,-1.20723 1.80054,-2.67663 2.04883,-4.37891 0.0665,-0.31384 0.10351,-0.69643 0.10351,-1.13281 0,-0.0811 -0.001,-0.15903 -0.004,-0.23633 6e-5,-0.0198 4e-5,-0.0407 0,-0.0605 -0.005,-2.17783 -1.05873,-4.22806 -2.81446,-6.0586 -0.48396,-1.05486 -1.29369,-1.81772 -1.9375,-1.72461 -1.86034,-1.43264 -4.148473,-2.68225 -6.644528,-3.68945 0.05809,-0.28583 -0.158754,-0.37181 -0.632813,-0.24805 -4.572586,-1.74655 -9.766332,-2.68513 -14.285156,-2.47265 z"
       sodipodi:nodetypes="scccscccccccscsccssccscsccccsccssssccccsccsccscsccssccscccccccccccccccscccccccccccccsccccccsccccccccccccccccccccccccccsccsccccccccccccccccccscscsccscccccccccssccscccccccccccccccccccccsccsscccssscsscsssccccsccccccccscccsssssccccccscsccccccssccscsssccsssscsscccsccccccscccccsccccccccscccscsccssssssssccsccccssccccccccccccccscccccscscscsccssccsccccccccccsssssssscccscccssccsccccccs" />
  </g>
</svg>
