<?xml version="1.0" encoding="UTF-8" standalone="no"?>
<!-- Created with Inkscape (http://www.inkscape.org/) -->

<svg
   version="1.1"
   id="svg1"
   width="1418"
   height="1274"
   viewBox="0 0 1418 1274"
   sodipodi:docname="iconosinletra.svg"
   inkscape:version="1.4.4 (dcaf3e7, 2026-05-05)"
   xmlns:inkscape="http://www.inkscape.org/namespaces/inkscape"
   xmlns:sodipodi="http://sodipodi.sourceforge.net/DTD/sodipodi-0.dtd"
   xmlns="http://www.w3.org/2000/svg"
   xmlns:svg="http://www.w3.org/2000/svg">
  <defs
     id="defs1" />
  <sodipodi:namedview
     id="namedview1"
     pagecolor="#505050"
     bordercolor="#eeeeee"
     borderopacity="1"
     inkscape:showpageshadow="0"
     inkscape:pageopacity="0"
     inkscape:pagecheckerboard="0"
     inkscape:deskcolor="#505050"
     inkscape:zoom="0.6711146"
     inkscape:cx="908.93567"
     inkscape:cy="403.06082"
     inkscape:window-width="1920"
     inkscape:window-height="1057"
     inkscape:window-x="-8"
     inkscape:window-y="-8"
     inkscape:window-maximized="1"
     inkscape:current-layer="g1" />
  <g
     inkscape:groupmode="layer"
     inkscape:label="Image"
     id="g1">
    <path
       style="fill:#d364f3"
       d="m 362.77956,829.07105 c -3.42556,-6.1875 -6.73009,-11.24721 -7.3434,-11.2438 -0.61331,0.003 -5.84011,1.39436 -11.61511,3.091 -22.46889,6.60116 -39.09556,5.12106 -60,-5.3412 -19.60359,-9.81121 -26.42356,-8.97061 -53.26608,6.56532 -38.5159,22.29226 -51.57356,24.93113 -72.47385,14.6465 -9.77667,-4.81092 -17.53309,-11.67915 -28.1966,-24.96782 -6.7482,-8.40947 -8.4808,-9.93315 -15.09338,-13.27335 -7.309,-3.69197 -9.59564,-4.27999 -33.725956,-8.67283 -28.33815,-5.15886 -33.21673,-15.22414 -15.83091,-32.66169 21.92795,-21.99319 78.656786,-47.54071 165.086776,-74.34591 44.9788,-13.94963 51.10531,-14.5758 16.98545,-1.73604 -71.27033,26.81999 -119.44552,53.68936 -126.40859,70.50351 -5.44214,13.14146 26.74791,20.32741 59.42314,13.26533 10.09097,-2.18096 22.89179,-5.90647 51.5,-14.9884 25.65163,-8.14334 30.48413,-9.09143 46.31538,-9.0866 13.67301,0.004 26.52081,1.63789 40.06872,5.09513 10.91896,2.78636 10.94144,2.76455 8.02651,-7.78794 -14.90952,-53.97473 -17.25213,-119.05519 -6.31042,-175.31121 43.21467,-222.18522 262.30163,-362.28842 482.22873,-308.37885 145.523,35.67131 262.57283,157.24554 291.12553,302.37885 1.4607,7.425 2.9842,15.075 3.3856,17 l 0.7296,3.5 8.4652,0.32126 c 21.8881,0.83066 70.676,-3.36781 91.4585,-7.8705 26.2841,-5.69467 35.6455,-11.16847 44.2446,-25.87085 14.9643,-25.58527 20.4246,-30.659 40.0557,-37.21971 21.5121,-7.18936 29.1521,-14.87431 24.9014,-25.04778 -8.3536,-19.99302 -69.1821,-20.75293 -181.0682,-2.26203 -11.4802,1.89728 -22.2802,3.4179 -24,3.37915 l -3.1268,-0.0705 3.8927,-1.42661 c 4.8508,-1.77771 54.2702,-14.23104 73.1073,-18.42252 94.5657,-21.04197 186.6295,-25.08418 217.4134,-9.5459 13.9633,7.04804 19.5866,15.52773 19.5866,29.53595 0,18.24673 -10.0886,31.94102 -34.6591,47.04641 -17.6286,10.8376 -24.1231,20.56187 -34.3076,51.36863 -3.0756,9.30328 -7.0413,19.63586 -8.8126,22.96129 -15.8027,29.6667 -48.9524,34.8775 -112.2207,17.63993 -38.3131,-10.43848 -46.2957,-11.82262 -57.8471,-10.03035 -16.9128,2.6241 -25.8726,12.86542 -37.1944,42.51409 -12.3599,32.36718 -19.1208,46.10431 -28.7675,58.45063 -4.68,5.98983 -5.3101,7.49353 -8.8202,21.04965 -90.64412,350.07361 -558.48945,399.46751 -726.91234,95.24976 z m -275.241006,8.65842 c -11.12267,-2.61908 -19.23298,-12.42037 -15.27544,-18.46034 6.48721,-9.90073 36.528646,-1.88386 36.554196,9.75487 0.0174,7.93483 -8.957766,11.60673 -21.278756,8.70547 z m 1118.438646,-91.919 c -22.9464,-3.21476 -35.2577,-20.45017 -29.8037,-41.72407 6.1021,-23.802 24.7851,-37.15917 45.8746,-32.7974 26.9804,5.58015 48.2508,31.40412 41.8475,50.80628 -5.3667,16.26136 -32.327,27.3005 -57.9184,23.71519 z M 279.13636,700.20501 c -9.04594,-4.46093 -3.73857,-18.688 6.36016,-17.0492 10.83164,1.75773 12.71487,14.79637 2.54505,17.6208 -4.76993,1.32474 -5.10316,1.30335 -8.90521,-0.5716 z M 1116.8216,458.6976 c -7.6736,-3.05988 -9.3271,-10.3647 -4.0082,-17.70723 8.0877,-11.16474 22.2995,-13.55338 29.5279,-4.96289 9.3766,11.14342 -10.3902,28.70304 -25.5197,22.67012 z"
       id="path10"
       sodipodi:nodetypes="scssssssssssssscsssssscssssssscsssssscsssscssssssssssssssssss" />
    <path
       style="fill:#9792ee"
       d="m 675.32107,1028.7587 c -15.9877,-1.4818 -38.9144,-4.8456 -51.3489,-7.5341 -6.3225,-1.3669 -12.1164,-2.2471 -12.8753,-1.9559 -0.8503,0.3263 -1.1109,0.095 -0.6791,-0.6041 0.4789,-0.7749 -0.1279,-0.9752 -1.9178,-0.633 -1.4401,0.2753 -2.4031,0.1522 -2.1399,-0.2736 0.6582,-1.0651 -5.2096,-2.2586 -6.6691,-1.3565 -0.7861,0.4858 -0.9113,0.2955 -0.3758,-0.5709 0.6044,-0.9779 0.1551,-1.1757 -1.8152,-0.799 -1.622,0.3101 -2.3801,0.115 -1.9923,-0.5125 0.3838,-0.6209 -0.2091,-0.7947 -1.5316,-0.4488 -1.3827,0.3615 -1.9215,0.1819 -1.5,-0.5 0.4214,-0.682 -0.1174,-0.8616 -1.5,-0.5 -1.3827,0.3615 -1.9215,0.1819 -1.5,-0.5 0.4214,-0.682 -0.1174,-0.8616 -1.5,-0.5 -1.3827,0.3615 -1.9215,0.1819 -1.5,-0.5 0.4214,-0.682 -0.1174,-0.8616 -1.5,-0.5 -1.3827,0.3615 -1.9215,0.1819 -1.5,-0.5 0.4214,-0.682 -0.1174,-0.8616 -1.5,-0.5 -1.3827,0.3615 -1.9215,0.1819 -1.5,-0.5 0.4214,-0.682 -0.1174,-0.8616 -1.5,-0.5 -1.3827,0.3615 -1.9215,0.1819 -1.5,-0.5 0.4214,-0.682 -0.1174,-0.8616 -1.5,-0.5 -1.3235,0.3461 -1.9155,0.1722 -1.5312,-0.4496 0.3974,-0.643 -0.1966,-0.7526 -1.6238,-0.2997 -1.6346,0.5188 -2.0451,0.382 -1.5,-0.5 0.5451,-0.8819 0.1346,-1.0188 -1.5,-0.5 -1.4128,0.4484 -2.0199,0.3412 -1.631,-0.288 0.8102,-1.311 -1.904,-2.3277 -4.0331,-1.5106 -1.1189,0.4293 -1.4271,0.2552 -0.941,-0.5314 0.404,-0.6536 0.1454,-1.2353 -0.5859,-1.318 -0.72,-0.081 -1.984,-0.2398 -2.809,-0.352 -0.825,-0.1121 -2.0891,-0.2705 -2.809,-0.3519 -0.7314,-0.083 -0.99,-0.6644 -0.586,-1.318 0.4862,-0.78664 0.1779,-0.96073 -0.941,-0.5314 -0.9152,0.3512 -1.664,0.1761 -1.664,-0.38905 0,-0.5652 -0.4094,-0.77462 -0.9098,-0.46537 -1.4031,0.86722 -4.1619,-0.51925 -3.4204,-1.71895 0.4128,-0.66797 0.038,-0.82704 -1.0058,-0.4266 -0.9152,0.3512 -1.664,0.17612 -1.664,-0.38908 0,-0.5652 -0.4094,-0.77462 -0.9098,-0.46537 -1.3933,0.86109 -4.1644,-0.51521 -3.43,-1.70352 0.3663,-0.59262 0.172,-0.75504 -0.4462,-0.37299 -1.3275,0.82043 -18.2983,-7.42233 -17.6018,-8.54924 0.2704,-0.43757 -0.1133,-0.56342 -0.8528,-0.27967 -1.5351,0.58909 -24.4439,-12.81579 -39.8758,-23.33307 -40.1081,-27.33467 -77.5625,-65.59292 -105.40935,-107.67168 -9.53497,-14.40807 -22.16962,-36.36576 -21.72427,-37.75449 0.35699,-1.1132 0.21017,-1.08363 -10.67507,2.15013 -13.17093,3.91278 -37.93463,7.27034 -36.49983,4.94879 0.51845,-0.83888 -0.31117,-0.96298 -3.02898,-0.45312 -2.80692,0.52658 -3.55603,0.39968 -2.9954,-0.50743 0.54906,-0.88841 0.0219,-1.02748 -1.98536,-0.5237 -1.93457,0.48555 -2.52581,0.35079 -2.02392,-0.46129 0.49567,-0.80201 0.0318,-0.93229 -1.54144,-0.43295 -1.68621,0.53518 -2.05257,0.39407 -1.46118,-0.5628 0.56118,-0.90801 0.30837,-1.09254 -0.87478,-0.63852 -0.91645,0.35167 -1.66404,0.15532 -1.66404,-0.43705 0,-0.59159 -0.69837,-0.80762 -1.55194,-0.48007 -1.01395,0.38909 -1.30374,0.19394 -0.83595,-0.56295 0.47816,-0.77368 0.16325,-0.94638 -0.94807,-0.51993 -0.91522,0.3512 -1.66404,0.17612 -1.66404,-0.38908 0,-0.5652 -0.45,-0.74952 -1,-0.4096 -0.55,0.33992 -1,0.11492 -1,-0.5 0,-0.61492 -0.45,-0.83992 -1,-0.5 -0.55,0.33992 -1,0.11492 -1,-0.5 0,-0.61492 -0.45,-0.83992 -1,-0.5 -0.55,0.33992 -1,0.16045 -1,-0.39883 0,-4.04792 -15.21296,-8.54561 -23.65663,-6.99404 -10.02132,1.84146 -43.80322,19.09968 -41.63352,21.26939 0.40106,0.40105 -0.0408,0.43371 -0.9819,0.0726 -1.09392,-0.41978 -1.93227,-0.0802 -2.32431,0.9414 -0.33726,0.87891 -1.01606,1.34904 -1.50842,1.04474 -0.49237,-0.3043 -0.89522,-0.002 -0.89522,0.67241 0,0.67413 -0.29301,0.93268 -0.65112,0.57456 -0.35812,-0.35812 -1.29149,0.12938 -2.07416,1.08333 -0.78267,0.95395 -1.14129,1.17711 -0.79694,0.49591 0.41151,-0.81405 0.0962,-1.03519 -0.9201,-0.64521 -0.85041,0.32633 -1.30041,0.99102 -1,1.47709 0.30041,0.48607 -0.15218,0.61577 -1.00574,0.28823 -0.85576,-0.32839 -1.55194,-0.0725 -1.55194,0.57047 0,0.6413 -0.45,0.88789 -1,0.54797 -0.55,-0.33992 -1,-0.1556 -1,0.4096 0,0.5652 -0.74882,0.74028 -1.66404,0.38908 -1.11132,-0.42645 -1.42623,-0.25375 -0.94807,0.51993 0.46779,0.75689 0.178,0.95204 -0.83595,0.56295 -0.85357,-0.32757 -1.55194,-0.11154 -1.55194,0.48005 0,0.59158 -0.675,0.81658 -1.5,0.5 -0.825,-0.31659 -1.5,-0.0471 -1.5,0.59877 0,0.7193 -0.77501,0.9284 -2,0.5396 -1.1,-0.34913 -2,-0.18274 -2,0.36974 0,0.59768 -1.48051,0.76427 -3.65548,0.41132 -2.62817,-0.4265 -3.45468,-0.26831 -2.94098,0.56287 0.50073,0.81019 -0.6495,1.15607 -3.84452,1.15607 -2.71039,0 -4.55902,-0.45618 -4.55902,-1.125 0,-0.72074 -1.09589,-0.90582 -3.04971,-0.51506 -2.07628,0.41526 -2.83428,0.26137 -2.37477,-0.48213 0.44943,-0.7272 -0.0351,-0.86671 -1.45029,-0.41756 -1.23344,0.39148 -2.12523,0.2398 -2.12523,-0.36148 0,-0.5698 -0.74882,-0.74865 -1.66404,-0.39745 -1.21605,0.46664 -1.44111,0.27783 -0.83596,-0.70132 0.60515,-0.97915 0.38009,-1.16796 -0.83596,-0.70132 -0.91522,0.3512 -1.66404,0.17612 -1.66404,-0.38908 0,-0.5652 -0.45,-0.74952 -1,-0.4096 -0.55,0.33992 -1,0.11492 -1,-0.5 0,-0.61492 -0.45,-0.83992 -1,-0.5 -0.55,0.33992 -1,0.0665 -1,-0.60765 0,-0.67413 -0.29301,-0.93268 -0.65112,-0.57456 -0.35812,0.35812 -1.29149,-0.12938 -2.07416,-1.08333 -0.94066,-1.14652 -1.19899,-1.22599 -0.7621,-0.23446 0.36351,0.825 -0.16562,0.58055 -1.17584,-0.54322 -2.84821,-3.16833 -5.95989,-5.37775 -4.86841,-3.45678 1.00808,1.7742 1.41859,2.17971 -6.22751,-6.1515 -3.35749,-3.65833 -6.43235,-6.35833 -6.83302,-6 -0.40067,0.35832 -0.46654,0.18892 -0.14638,-0.37646 0.32016,-0.56538 -0.32174,-2.14038 -1.42645,-3.5 -1.10471,-1.35962 -1.67499,-1.84001 -1.26728,-1.06753 0.50528,0.95735 0.35254,1.16425 -0.47975,0.64986 -0.67157,-0.41505 -0.98194,-0.99375 -0.68969,-1.28599 0.95406,-0.95406 -1.46825,-4.34318 -2.60297,-3.64188 -0.60739,0.37538 -0.82732,0.23429 -0.48874,-0.31354 0.70361,-1.13847 -5.57964,-7.61926 -6.62233,-6.83054 -0.37634,0.28467 -0.46211,0.22044 -0.19061,-0.14273 0.79361,-1.06156 -3.38352,-3.52578 -4.6499,-2.74311 -0.76638,0.47364 -0.87839,0.26851 -0.33421,-0.61201 0.59932,-0.96971 0.35896,-1.14808 -0.89742,-0.66596 -0.94585,0.36295 -1.46176,0.24713 -1.14953,-0.25807 0.73463,-1.18865 -3.08963,-2.40907 -4.60814,-1.47058 -0.77389,0.47829 -0.89195,0.27974 -0.35258,-0.59298 0.6041,-0.97745 0.26063,-1.16813 -1.34687,-0.74776 -1.18676,0.31034 -1.92607,0.18939 -1.6429,-0.26878 0.55077,-0.89118 -3.91865,-1.87716 -20.355746,-4.49063 -5.68901,-0.90454 -12.19398,-2.29745 -14.45548,-3.09535 -2.2615,-0.79791 -4.71773,-1.21823 -5.45828,-0.93405 -0.74055,0.28417 -1.08337,0.091 -0.76182,-0.42928 0.59964,-0.97025 -4.85803,-4.32053 -5.68731,-3.49125 -0.25307,0.25307 -0.54218,-0.10238 -0.64249,-0.78988 -1.37204,-9.40425 -1.34409,-9.74473 1.14926,-13.99932 7.72362,-13.17935 35.74891,-30.99051 74.699776,-47.47459 22.55383,-9.54482 92.38947,-34.21996 93.55389,-33.05554 0.23571,0.23572 -6.87998,3.50927 -15.81266,7.27457 -57.74169,24.33921 -96.47862,50.97549 -92.12726,63.34852 0.51381,1.461 1.59835,2.65636 2.41011,2.65636 0.81176,0 1.47592,0.64978 1.47592,1.44395 0,4.29579 14.80906,8.39375 30,8.30158 15.60351,-0.0947 43.35238,-5.05733 41.85206,-7.4849 -0.39575,-0.64034 -0.18791,-0.77722 0.51783,-0.34104 1.71494,1.05989 7.28382,-0.36186 6.48433,-1.65547 -0.40813,-0.66037 -0.18879,-0.77991 0.57027,-0.31079 1.4791,0.91413 10.2475,-1.36602 9.55597,-2.48495 -0.26577,-0.43002 0.48777,-0.52794 1.67453,-0.2176 1.46765,0.3838 1.93122,0.19773 1.44944,-0.5818 -0.45355,-0.73387 -0.17009,-0.93954 0.78814,-0.57183 1.59731,0.61294 24.71633,-6.61193 24.14026,-7.54402 -0.18801,-0.30422 0.85268,-0.59613 2.31266,-0.64869 1.45998,-0.0526 6.25451,-1.11006 10.65451,-2.35 11.52879,-3.24886 29.46763,-3.84836 44.5,-1.48717 6.325,0.9935 12.91953,1.83479 14.65451,1.86954 1.73498,0.0348 2.9056,0.46593 2.60137,0.95818 -0.30422,0.49224 0.62513,0.66975 2.06523,0.39446 1.6022,-0.30628 2.37838,-0.11224 2,0.5 -0.37838,0.61223 0.3978,0.80628 2,0.5 1.4401,-0.2753 2.41223,-0.167 2.16028,0.24066 -0.25194,0.40765 0.64806,0.95264 2,1.21108 1.35195,0.25844 2.23936,0.116 1.97204,-0.31655 -0.26733,-0.43254 -0.0713,-1.04276 0.43556,-1.35603 0.52497,-0.32445 -0.11859,-4.33515 -1.49535,-9.3191 C 315.73116,700.11967 310.86394,649.7205 313.8292,609.82105 342.22478,227.74103 817.45232,130.17918 1018.1706,394.9246 c 4.8231,6.36164 3.0897,4.70064 -6.7151,-6.43469 -2.8239,-3.20712 -6.0344,-6.2997 -7.1344,-6.8724 -1.6085,-0.83743 -1.7643,-0.79137 -0.7959,0.23524 0.9524,1.0097 0.2459,2.34167 -3.3803,6.37241 -2.52143,2.80274 -6.28053,7.57089 -8.35353,10.59589 -2.073,3.025 -5.4339,7.075 -7.4688,9 -2.0348,1.925 -6.2159,6.875 -9.2915,11 -3.0755,4.125 -7.8684,10.01058 -10.6509,13.07906 -2.7825,3.06849 -7.0841,8.19666 -9.5591,11.39595 -2.475,3.19928 -6.975,8.61053 -10,12.02499 -3.025,3.41446 -7.525,8.81446 -10,12 -2.475,3.18554 -6.975,8.58554 -10,12 -3.025,3.41446 -7.525,8.80857 -10,11.9869 -2.475,3.17834 -5.8976,7.40651 -7.6057,9.39595 -4.593,5.34937 -5.3702,7.29036 -4.4871,11.20599 1.4969,6.63673 5.3764,10.69696 19.9356,20.86379 l 4.9442,3.45263 -3.6435,4.42227 c -2.0039,2.43225 -5.9113,6.95357 -8.6829,10.04737 -2.7717,3.09381 -7.018,8.3251 -9.4362,11.6251 -2.4182,3.3 -6.9573,8.7 -10.0868,12 -3.1296,3.3 -7.2629,8.38301 -9.1852,11.29557 -1.9223,2.91256 -5.9292,7.86256 -8.9042,11 -2.975,3.13744 -7.9363,9.07943 -11.0251,13.20443 -3.0887,4.125 -7.0441,8.85 -8.7896,10.5 -1.7455,1.65 -4.0681,4.44526 -5.1615,6.21168 -1.0933,1.76643 -4.9992,5.22 -8.6799,7.67461 -3.6807,2.45461 -7.5975,5.28435 -8.7042,6.28832 -1.1066,1.00396 -4.5606,3.89276 -7.6755,6.41954 l -5.6636,4.59414 -14.3244,0.63126 c -16.4392,0.72445 -31.8244,4.06213 -31.8244,6.90403 0,0.53951 -2.1375,3.43743 -4.75,6.43982 -2.6125,3.00238 -7.225,8.3016 -10.25,11.77603 -7.5094,8.6251 -9.9156,11.56057 -9.476,11.56057 1.7644,0 18.2789,-5.8941 26.4395,-9.43638 16.5181,-7.16997 27.4032,-14.05627 56.0036,-35.42958 23.4741,-17.54244 33.9965,-19.35152 87.6849,-15.07525 43.3291,3.45116 69.0703,-0.49595 99.14123,-15.20218 13.2018,-6.45635 49.2763,-29.89032 50.3318,-32.69551 2.3729,-6.306 1.3599,-55.49465 -1.7089,-82.98626 -0.8795,-7.87883 -1.3786,-14.54572 -1.109,-14.8153 2.4828,-2.48282 19.5042,53.65922 24.7521,81.64046 1.1863,6.325 2.6134,12.0625 3.1713,12.75 3.7245,4.58953 106.9871,-3.35281 104.1103,-8.00754 -0.3764,-0.60908 -0.1712,-0.75569 0.4877,-0.34846 1.4629,0.90414 8.3125,-0.35681 7.6614,-1.41039 -0.271,-0.4384 0.4783,-0.54317 1.6651,-0.23283 1.3827,0.36158 1.9215,0.18197 1.5,-0.5 -0.4215,-0.68197 0.1173,-0.86157 1.5,-0.5 1.3827,0.36158 1.9215,0.18197 1.5,-0.5 -0.4215,-0.68197 0.1173,-0.86157 1.5,-0.5 1.6075,0.42037 1.951,0.22969 1.3469,-0.74776 -0.5516,-0.89238 -0.4223,-1.07188 0.4039,-0.56121 1.492,0.92206 7.2785,-1.3346 6.5296,-2.54641 -0.2966,-0.47987 0.2329,-0.57617 1.1767,-0.21401 1.2564,0.48212 1.4968,0.30375 0.8974,-0.66596 -0.5373,-0.86938 -0.4315,-1.08529 0.3077,-0.62838 1.4838,0.91699 6.3525,-2.30342 5.5197,-3.65094 -0.3685,-0.59633 -0.1658,-0.7484 0.4721,-0.35414 1.3798,0.85277 5.4967,-3.07836 4.6531,-4.44322 -0.3359,-0.54357 -0.015,-0.86465 0.7136,-0.71353 0.7324,0.15198 1.263,-0.50253 1.1872,-1.46446 -0.078,-0.98909 0.3188,-1.45747 0.9199,-1.08595 0.6652,0.4111 0.813,0.0172 0.3986,-1.0627 -0.3622,-0.94379 -0.2962,-1.49209 0.1466,-1.21843 1.1793,0.72886 4.4127,-5.19514 3.5752,-6.55024 -0.4088,-0.66144 -0.2754,-0.88249 0.313,-0.51882 0.5639,0.34851 2.7188,-2.10998 4.7885,-5.4633 2.0698,-3.35332 5.0878,-7.60552 6.7067,-9.44934 1.6952,-1.9307 2.6331,-3.85463 2.2115,-4.53669 -0.4213,-0.68165 -0.3052,-0.92061 0.2733,-0.56302 0.5529,0.34171 2.535,-0.52432 4.4046,-1.92449 5.2538,-3.93476 11.4956,-6.79895 22.3992,-10.27842 16.1358,-5.14913 23.4888,-11.84041 23.4963,-21.3817 0.018,-23.10389 -53.0064,-27.62351 -153.8574,-13.11424 -9.5486,1.37374 -17.5352,2.32363 -17.7479,2.11087 -1.2198,-1.21974 61.0834,-14.59962 86.8132,-18.64351 83.1108,-13.06237 141.8483,-13.57607 167.4501,-1.46446 18.2325,8.62537 24.9346,26.56674 16.3929,43.88368 -1.899,3.85 -3.4123,7.55766 -3.3629,8.23924 0.049,0.68158 -0.2866,1.00657 -0.7467,0.72219 -0.9483,-0.5861 -5.4376,5.0877 -5.4376,6.87235 0,0.64142 -0.45,1.16692 -1,1.16777 -2.0232,0.003 -7.5127,4.67021 -6.8514,5.82492 0.3696,0.64544 0.3157,0.85186 -0.1198,0.45871 -1.0224,-0.923 -4.7494,1.04888 -4.0676,2.15209 0.2845,0.46031 -0.2654,0.77523 -1.222,0.69983 -0.9619,-0.0758 -1.6164,0.45478 -1.4644,1.18723 0.1511,0.72838 -0.1856,1.03981 -0.7483,0.69207 -1.3312,-0.82273 -5.2427,1.91033 -4.2701,2.98362 0.409,0.45135 0.1819,0.49741 -0.5046,0.10237 -1.3179,-0.75831 -5.6388,1.67729 -4.6788,2.6373 0.3082,0.30817 -0.2572,0.49281 -1.2563,0.41031 -1.0311,-0.0851 -1.6979,0.42271 -1.5419,1.17433 0.1511,0.72838 -0.1483,1.06287 -0.6654,0.74331 -1.3284,-0.82101 -7.2541,4.38928 -6.4576,5.67802 0.3723,0.60239 0.1864,0.77237 -0.4289,0.39212 -1.3122,-0.81102 -4.3934,3.2774 -3.5267,4.6797 0.3371,0.54534 0.1425,0.70087 -0.4323,0.34561 -1.3475,-0.83281 -4.5679,4.03595 -3.651,5.51966 0.3829,0.61945 0.2555,0.85393 -0.2831,0.52108 -1.2443,-0.769 -5.5969,8.05493 -4.694,9.51592 0.4027,0.65159 0.2093,0.80257 -0.4813,0.37574 -1.072,-0.66251 -1.5482,0.7223 -1.4249,4.14375 0.025,0.68158 -0.4255,0.94871 -1,0.59363 -0.6586,-0.40701 -0.8361,0.15186 -0.4804,1.51214 0.3652,1.39639 0.1844,1.92296 -0.5124,1.49232 -0.681,-0.42089 -0.842,-0.0539 -0.4381,0.99863 0.3517,0.91645 0.1553,1.66404 -0.4371,1.66404 -0.5916,0 -0.8076,0.69837 -0.48,1.55194 0.3275,0.85356 0.2375,1.33066 -0.2001,1.06021 -0.4376,-0.27045 -2.2936,4.09368 -4.1245,9.69806 -16.1963,49.57868 -42.8605,56.67073 -127.017,33.78344 -27.7773,-7.55435 -32.6822,-8.42097 -44.887,-7.93076 -21.7371,0.87308 -30.7775,10.78018 -45.4771,49.83711 -9.7168,25.81782 -20.0594,46.7537 -25.2077,51.02639 -0.8576,0.71172 -1.3189,1.92031 -1.0252,2.68576 0.2938,0.76545 0.1125,1.13114 -0.4029,0.81265 -0.5153,-0.31848 -2.722,1.83724 -4.9037,4.7905 -13.7677,18.63668 -44.3282,28.38249 -71.6364,22.84501 -3.3,-0.66916 -9.825,-1.90682 -14.5,-2.75035 -4.675,-0.84353 -25.60003,-5.76558 -46.50003,-10.93789 -93.6964,-23.18788 -102.3316,-21.7258 -136.0046,23.02793 -16.8065,22.33691 -28.7712,28.65165 -51.4188,27.13776 -20.7665,-1.38814 -36.547,-7.2082 -96.5766,-35.61881 -8.2209,-3.89075 -21.4126,-7.61619 -23.7079,-6.69528 -0.7107,0.28514 -0.055,0.55396 1.4579,0.59738 1.5125,0.0434 2.75,0.37488 2.75,0.73658 0,1.02371 -8.1612,11.63634 -10.4513,13.59064 -1.9912,1.69917 -1.8943,1.74493 3.4513,1.62963 9.8627,-0.21272 18.3005,4.24127 39.8176,21.01807 6.7747,5.28222 14.5372,11.30726 17.25,13.38899 2.7128,2.08173 4.9324,4.11911 4.9324,4.5275 0,1.32726 -3.8381,6.44078 -9.7879,13.04052 -1.8083,2.00586 -4.3859,5.75005 -5.728,8.32041 -1.3421,2.57037 -6.0983,8.19537 -10.5693,12.5 -4.471,4.30464 -10.6418,11.20161 -13.7128,15.32661 -3.0711,4.125 -7.8604,10.01058 -10.6429,13.07906 -2.7825,3.06849 -7.0841,8.19666 -9.5591,11.39595 -2.475,3.19928 -6.975,8.61053 -10,12.02499 -3.025,3.41446 -7.525,8.81446 -10,12 -2.475,3.18554 -6.975,8.58554 -10,12 -3.025,3.41446 -7.525,8.81446 -10,12 -2.475,3.18554 -6.975,8.58554 -10,12 -3.025,3.41446 -7.525,8.80781 -10,11.98522 -2.475,3.17741 -7.3585,8.95364 -10.8522,12.83607 -7.4747,8.30636 -8.2152,7.46547 9.8522,11.1881 47.0665,9.69766 116.1467,6.92188 166.5,-6.69031 8.25,-2.23026 17.9196,-4.67584 21.4881,-5.43463 9.5929,-2.03983 44.8985,-15.69452 58.4336,-22.59958 6.0586,-3.0909 9.0538,-3.69818 13.259,-2.6883 33.8987,8.14078 104.3696,-19.02403 177.06933,-68.25588 5.6375,-3.81769 10.25,-6.68468 10.25,-6.3711 0,0.93727 -4.9262,8.56416 -10.354,16.03041 -66.85843,91.96791 -162.11283,148.21725 -274.42633,162.05355 -15.2029,1.8729 -62.2822,2.7223 -76.7197,1.3841 z m -47.0564,-268.06634 c 1.681,-1.02511 2.6423,-1.86552 2.1361,-1.86757 -1.6618,-0.007 -14.5797,6.27342 -14.5797,7.08807 0,0.89181 7.7567,-2.36239 12.4436,-5.2205 z m 213.0963,-155.42069 c 23.2191,-6.03599 35.9042,-27.67844 20.6895,-35.29891 -9.0165,-4.51602 -9.552,-4.22965 -21.9744,11.75234 -3.1653,4.07222 -8.5936,10.54862 -12.063,14.39199 -6.6672,7.38586 -6.7402,7.96918 -1.192,9.53549 5.0705,1.43147 7.848,1.35871 14.5399,-0.38091 z M 91.558594,837.4367 c 0.3006,-0.48639 -0.8436,-0.68031 -2.54268,-0.43094 -1.86007,0.273 -2.84909,0.0648 -2.48568,-0.52318 0.35686,-0.5774 -0.27842,-0.74593 -1.55419,-0.41231 -1.35074,0.35323 -1.91817,0.17662 -1.51718,-0.47221 0.35701,-0.57764 0.0389,-0.83591 -0.71863,-0.5834 -2.11291,0.7043 -10.66141,-8.29163 -10.16174,-10.69361 0.34374,-1.65237 0.22982,-1.73927 -0.65538,-0.5 -0.88626,1.24076 -1.07408,1.10094 -1.08675,-0.80902 -0.008,-1.28757 0.42706,-2.03561 0.98469,-1.69098 0.55,0.33992 1,-0.0977 1,-0.97237 0,-0.87472 0.67241,-1.84843 1.49425,-2.1638 0.82185,-0.31537 1.28546,-0.91124 1.03027,-1.32416 -0.2552,-0.41292 0.75989,-0.55553 2.25574,-0.31692 1.59807,0.25491 2.2436,0.0922 1.56523,-0.39446 -0.65816,-0.47219 1.55787,-0.82829 5.15451,-0.82829 3.55906,0 5.80579,0.35779 5.15451,0.82085 -0.66164,0.47043 0.23294,0.65109 2.09549,0.4232 1.7875,-0.21872 3.25,0.0225 3.25,0.53613 0,0.51359 0.69837,0.66581 1.55194,0.33826 0.98801,-0.37913 1.3008,-0.18919 0.8608,0.52275 -0.40848,0.66094 -0.14856,0.93742 0.63556,0.67604 0.72969,-0.24323 2.158736,0.38981 3.175666,1.40674 1.01694,1.01694 2.25147,1.60023 2.7434,1.29619 0.90151,-0.55716 2.37404,1.12799 2.60388,2.97984 0.0683,0.55 0.19266,1.58906 0.27643,2.30902 0.0838,0.71996 0.60232,1.0309 1.15232,0.69098 0.5694,-0.35191 1,0.50929 1,2 0,1.49071 -0.4306,2.35191 -1,2 -0.87034,-0.5379 -1.47523,1.49024 -1.11842,3.75 0.0651,0.4125 -0.21908,0.69671 -0.63158,0.63158 -1.98515,-0.31345 -3.30695,0.21726 -2.75708,1.10697 0.3629,0.58718 -0.0857,0.72119 -1.10503,0.33006 -0.94956,-0.36438 -1.46204,-0.24761 -1.14743,0.26145 0.31878,0.5158 -1.763786,0.91994 -4.740456,0.91994 -2.91996,0 -5.06307,-0.39796 -4.76246,-0.88435 z M 994.82107,795.34337 c 0,-0.69579 3.8436,-7.02073 8.54153,-14.05542 4.6978,-7.03468 10.0972,-15.57232 11.9987,-18.97252 5.3025,-9.48172 5.5636,-9.62443 15.5147,-8.48043 4.6448,0.53398 11.906,0.97429 16.1361,0.97846 4.5038,0.004 7.9725,0.46316 8.3704,1.10692 1.5086,2.44096 -20.0726,21.47525 -33.814,29.82342 -11.4514,6.95699 -26.74743,12.44667 -26.74743,9.59957 z m 211.15613,-49.5329 c -12.2376,-1.71448 -22.7655,-8.18113 -27.5096,-16.89751 -2.9108,-5.34809 -4.6911,-17.15267 -3.131,-20.76054 0.4355,-1.00725 0.6944,-2.61887 0.5753,-3.58137 -0.1191,-0.9625 0.2476,-1.75 0.815,-1.75 0.5673,0 0.7724,-0.675 0.4558,-1.5 -0.3166,-0.825 -0.092,-1.5 0.5,-1.5 0.5916,0 0.8389,-0.61698 0.5495,-1.37106 -0.2894,-0.75408 0.1533,-2.05051 0.9838,-2.88095 0.8304,-0.83044 1.2313,-1.78847 0.8908,-2.12894 -0.3405,-0.34048 -0.067,-0.61905 0.6067,-0.61905 0.6741,0 0.9475,-0.45 0.6076,-1 -0.3399,-0.55 -0.1149,-1 0.5,-1 0.6149,0 0.838,-0.45318 0.4956,-1.00706 -0.3423,-0.55389 0.079,-1.27604 0.9353,-1.60479 0.8567,-0.32874 1.3451,-0.94153 1.0854,-1.36175 -0.6674,-1.07988 11.2749,-12.27347 12.3714,-11.5958 0.4965,0.30685 1.1787,-0.16119 1.5159,-1.0401 0.3497,-0.9111 1.2544,-1.35197 2.1048,-1.02564 0.8204,0.3148 1.4916,0.0883 1.4916,-0.50323 0,-0.59159 0.675,-0.81659 1.5,-0.5 0.825,0.31658 1.5,0.10397 1.5,-0.47247 0,-0.63665 1.1403,-0.79762 2.9048,-0.41007 1.6663,0.36598 3.1837,0.18668 3.559,-0.42054 0.859,-1.38984 5.5362,-1.37218 5.5362,0.0209 0,0.67915 1.1125,0.8351 3,0.42054 1.9724,-0.43322 3,-0.2661 3,0.48793 0,0.69177 0.7936,0.89496 2,0.51207 1.1215,-0.35594 2,-0.1797 2,0.40123 0,0.5698 0.675,0.77698 1.5,0.4604 0.825,-0.31659 1.5,-0.0916 1.5,0.5 0,0.59158 0.617,0.83884 1.3711,0.54947 0.754,-0.28936 2.104,0.2069 3,1.10282 0.8959,0.89591 1.6289,1.36024 1.6289,1.03183 0,-0.32841 1.35,0.101 3,0.95425 1.65,0.85325 3,2.01636 3,2.5847 0,0.56833 0.4279,0.76888 0.9509,0.44566 0.523,-0.32322 4.0553,2.34089 7.8496,5.92026 23.3984,22.07282 17.5081,47.38526 -13.3005,57.15669 -9.0182,2.86026 -21.2795,3.79211 -31.3439,2.38211 z m -927.52129,-48.062 c -2.97969,-2.34382 -3.29747,-4.74539 -1.17185,-8.8559 3.20155,-6.19111 13.00701,-5.22588 15.57686,1.53336 2.69162,7.07948 -7.88134,12.45406 -14.40501,7.32254 z M 1133.6336,475.13794 c 0.7219,-0.28887 1.5844,-0.25335 1.9167,0.0789 0.3323,0.33229 -0.2584,0.56864 -1.3125,0.52522 -1.165,-0.048 -1.4019,-0.28494 -0.6042,-0.60416 z m -109.9401,-72.06689 c -1.2439,-1.58606 -1.2085,-1.62143 0.3776,-0.37756 1.6657,1.30637 2.1955,2.12756 1.3724,2.12756 -0.2076,0 -0.9951,-0.7875 -1.75,-1.75 z"
       id="path9"
       sodipodi:nodetypes="ssscsssssssssssssssssssssssssscscsssssssssssssssssssssssssssssssssssssssssssssssssssssssssssssssssssssssssssssssssssssssssssssssssssssssssssssssssssssssssssssssssssssssssssssssssssssssscsssssssssssscsssssssssssssssssssssssssssssssssssssssssssssscssscssssssssssssssssssssssscssssssscssssssssssssssssssssssssssssssssssssssssssssscsssssssssssssssscssssssssssssssssssssssssssssssscsssssssssssssssssssssssssssssssssssssssssssssssssssssssss" />
    <path
       style="fill:#4bcee2"
       d="m 675.32107,1028.7587 c -91.7625,-8.5048 -169.2286,-42.52933 -234.4413,-102.97068 -17.5539,-16.26953 -44.88048,-47.26187 -49.75434,-56.42869 -1.90158,-3.5765 -2.56918,-4.00242 13.33294,8.50633 12.0702,9.49447 18.1984,13.82055 23.2422,16.40741 l 3.3795,1.73327 5.9576,-6.60101 c 3.2767,-3.63055 7.8612,-9.18474 10.1878,-12.34264 2.3265,-3.1579 6.715,-8.44164 9.7521,-11.74164 3.0371,-3.3 7.0568,-8.09238 8.9327,-10.64973 1.8759,-2.55735 5.7876,-7.35998 8.6926,-10.67251 5.0555,-5.76474 5.184,-6.05022 3,-6.66312 -1.255,-0.35219 -3.1818,-1.02021 -4.2818,-1.48448 -4.905,-2.07025 -10.5,-3.97634 -10.5,-3.57709 0,0.24028 -2.4879,-0.66336 -5.5285,-2.0081 -3.0407,-1.34473 -6.1907,-2.44497 -7,-2.44497 -0.8094,0 -1.4715,-0.45 -1.4715,-1 0,-0.55 -0.8735,-1 -1.941,-1 -3.3007,0 -3.3285,-1.87193 -0.089,-5.9625 l 3.1103,-3.92702 -8.2903,-6.16341 c -20.4077,-15.17209 -25.6885,-15.27262 -61.29032,-1.1668 -10.6121,4.20463 -20.76587,7.61347 -23,7.72159 -2.2,0.10647 -7.95388,1.36488 -12.7864,2.79647 -24.80168,7.34726 -44.18411,5.47658 -63.44665,-6.12351 -15.79296,-9.51066 -24.85268,-7.74211 -57.12348,11.15115 -19.25938,11.2756 -28.19904,15.19905 -38.14878,16.7428 -18.93829,2.93838 -38.06477,-7.15082 -54.23756,-28.61026 -10.72144,-14.22612 -19.18847,-18.78814 -40.757126,-21.95988 -25.04208,-3.68252 -34,-8.03643 -34,-16.52536 0,-13.57181 29.73632,-34.6951 76.999996,-54.69718 22.55383,-9.54482 92.38947,-34.21996 93.55389,-33.05554 0.23571,0.23572 -6.87998,3.50927 -15.81266,7.27457 -53.82809,22.68955 -92.74123,48.34383 -92.74123,61.14153 0,9.85867 20.35707,16.51054 43.74599,14.29443 17.4187,-1.65043 29.18132,-4.60605 69.25401,-17.40156 36.07675,-11.51958 52.3521,-12.37022 84.89932,-4.4373 4.73037,1.15297 9.89078,2.08248 11.46756,2.0656 1.57679,-0.0169 9.45179,1.92898 17.5,4.32414 35.43406,10.54525 33.23403,10.8256 57.38044,-7.31198 18.7607,-14.09216 26.1186,-18.43155 38.5862,-22.75654 20.4924,-7.1088 36.7596,-8.84754 50.6665,-5.41557 32.9043,8.12018 51.8875,5.08813 87.5,-13.97576 34.6307,-18.53832 47.124,-20.22435 87.5,-11.80853 32.0225,6.67466 48.1887,6.11585 81.9004,-2.83104 30.5658,-8.11197 44.742,-15.65263 82.9284,-44.1117 25.2079,-18.78659 34.9044,-20.5465 89.3232,-16.21205 43.3291,3.45116 69.0703,-0.49595 99.14123,-15.20218 13.2018,-6.45635 49.2763,-29.89032 50.3318,-32.69551 2.3729,-6.306 1.3599,-55.49465 -1.7089,-82.98626 -0.8795,-7.87883 -1.3786,-14.54572 -1.109,-14.8153 2.4828,-2.48282 19.5042,53.65922 24.7521,81.64046 1.1863,6.325 2.6134,12.0625 3.1713,12.75 2.1981,2.70863 49.0165,1.003 79.2695,-2.88786 34.1681,-4.39437 56.7861,-12.79663 63.3401,-23.5299 20.9103,-34.24418 23.463,-36.69628 45.6599,-43.86103 17.2204,-5.55842 24.4886,-12.00993 24.4963,-21.74355 0.018,-23.10389 -53.0064,-27.62351 -153.8574,-13.11424 -9.5486,1.37374 -17.5352,2.32363 -17.7479,2.11087 -1.2198,-1.21974 61.0834,-14.59962 86.8132,-18.64351 69.8213,-10.97368 126.4995,-13.18987 154.4572,-6.0395 43.8786,11.22225 44.2741,51.16633 0.767,77.45872 -19.3188,11.67487 -26.4564,21.93952 -37.2823,53.61633 -10.247,29.98328 -17.9139,39.80883 -35.6985,45.74992 -20.27,6.77137 -43.2871,4.58627 -92.4076,-8.7726 -27.7773,-7.55435 -32.6822,-8.42097 -44.887,-7.93076 -21.4005,0.85956 -31.0241,11.16315 -44.6802,47.83711 -23.5071,63.12874 -46.0374,85.37339 -86.4728,85.37618 -6.325,4.4e-4 -14.2,-0.5467 -17.5,-1.21587 -3.3,-0.66916 -9.825,-1.90682 -14.5,-2.75035 -4.675,-0.84353 -25.60003,-5.76558 -46.50003,-10.93789 -93.6964,-23.18788 -102.3316,-21.7258 -136.0046,23.02793 -13.0111,17.29261 -20.5699,23.04528 -34.2924,26.09823 -22.4786,5.00103 -48.363,-2.85697 -112.871,-34.26543 -20.4414,-9.95279 -34.3497,-9.51867 -46.5275,1.45224 -4.4232,3.98485 -17.8045,20.15429 -17.8045,21.51424 0,1.81719 6.3646,-0.40726 19.0961,-6.67416 22.0989,-10.87788 27.0309,-9.65852 57.7215,14.27085 6.7747,5.28222 14.5372,11.30726 17.25,13.38899 2.7128,2.08173 4.9324,4.11911 4.9324,4.5275 0,1.32726 -3.8381,6.44078 -9.7879,13.04052 -1.8083,2.00586 -4.3859,5.75005 -5.728,8.32041 -1.3421,2.57037 -6.0983,8.19537 -10.5693,12.5 -4.471,4.30464 -10.6418,11.20161 -13.7128,15.32661 -3.0711,4.125 -7.8604,10.01058 -10.6429,13.07906 -2.7825,3.06849 -7.0841,8.19666 -9.5591,11.39595 -2.475,3.19928 -6.975,8.61053 -10,12.02499 -3.025,3.41446 -7.525,8.81446 -10,12 -2.475,3.18554 -6.975,8.58554 -10,12 -3.025,3.41446 -7.525,8.81446 -10,12 -2.475,3.18554 -6.975,8.58554 -10,12 -3.025,3.41446 -7.525,8.80781 -10,11.98522 -2.475,3.17741 -7.3585,8.95364 -10.8522,12.83607 -7.4747,8.30636 -8.2152,7.46547 9.8522,11.1881 47.0665,9.69766 116.1467,6.92188 166.5,-6.69031 8.25,-2.23026 17.9196,-4.67584 21.4881,-5.43463 9.5929,-2.03983 44.8985,-15.69452 58.4336,-22.59958 6.0586,-3.0909 9.0538,-3.69818 13.259,-2.6883 33.8987,8.14078 104.3696,-19.02403 177.06933,-68.25588 5.6375,-3.81769 10.25,-6.68468 10.25,-6.3711 0,0.93727 -4.9262,8.56416 -10.354,16.03041 -66.85843,91.96791 -162.11283,148.21725 -274.42633,162.05355 -15.2029,1.8729 -62.2822,2.7223 -76.7197,1.3841 z M 87.064644,836.27409 c -10.60237,-2.85478 -17.46971,-11.42405 -13.84945,-17.28175 2.01156,-3.25478 16.63714,-3.82329 23.43825,-0.91107 19.361286,8.29048 11.192846,23.78846 -9.5888,18.19282 z M 994.82107,795.34337 c 0,-0.69579 3.8436,-7.02073 8.54153,-14.05542 4.6978,-7.03468 10.0972,-15.57232 11.9987,-18.97252 5.3025,-9.48172 5.5636,-9.62443 15.5147,-8.48043 4.6448,0.53398 11.906,0.97429 16.1361,0.97846 4.5038,0.004 7.9725,0.46316 8.3704,1.10692 1.5086,2.44096 -20.0726,21.47525 -33.814,29.82342 -11.4514,6.95699 -26.74743,12.44667 -26.74743,9.59957 z m 208.38873,-51.01071 c -25.3759,-5.52008 -34.3438,-26.93258 -21.7164,-51.85169 8.0025,-15.79207 23.7152,-23.67594 40.3346,-20.23787 28.5502,5.90623 49.2524,32.95088 39.9433,52.18073 -7.5705,15.63872 -35.1263,25.00671 -58.5615,19.90883 z M 327.17349,733.10048 C 322.26457,722.52731 317.04316,692.54665 314.8466,662.32105 301.31646,476.14111 423.15577,305.60717 604.85517,256.40679 c 87.6758,-23.74079 184.0477,-15.48447 264.8205,22.68754 22.4219,10.59628 21.1454,9.07475 21.1454,25.20385 0,37.27459 -14.6071,58.38009 -53.339,77.0685 -19.0309,9.18254 -32.0023,12.65576 -67.411,18.04989 -6.1076,0.93042 -3.1252,8.55004 4.6973,12.00133 l 3.8993,1.72037 -3.1733,3.96779 c -1.7453,2.18228 -5.6483,6.77023 -8.6733,10.19545 -3.025,3.42521 -7.525,8.81781 -10,11.98355 -5.4546,6.97694 -12.6205,15.56768 -20,23.97675 -3.025,3.44704 -7.525,8.88495 -10,12.08423 -2.475,3.19929 -6.7766,8.32746 -9.5591,11.39595 -2.7826,3.06848 -7.5755,8.95406 -10.651,13.07906 -3.0755,4.125 -7.2582,9.075 -9.2949,11 -2.0367,1.925 -5.8546,6.65 -8.4842,10.5 -2.6296,3.85 -5.9461,8.07991 -7.3699,9.3998 -2.9422,2.72747 -2.5246,3.34046 -5.5928,-8.20912 -5.3716,-20.22054 -15.822,-30.48485 -31.3677,-30.80922 -8.2907,-0.17299 -7.1902,-1.34623 -14.6513,15.61854 -3.3864,7.7 -9.0794,19.57064 -12.651,26.37921 -4.4745,8.5295 -5.9574,12.17333 -4.7687,11.71718 7.7629,-2.97892 19.6258,-1.1683 24.1922,3.69242 7.2021,7.6663 8.1974,24.82189 1.891,32.5939 -1.7559,2.16401 -5.2176,6.51635 -7.6926,9.67187 -2.475,3.15552 -6.975,8.53096 -10,11.94542 -3.025,3.41446 -7.525,8.82571 -10,12.02499 -7.6593,9.90066 -15.1736,17.47501 -17.3365,17.47501 -6.5575,0 -13.6175,-6.96187 -16.7326,-16.5 -1.6699,-5.11282 -1.7042,-23.63148 -0.054,-29.35094 0.6902,-2.39302 1.1129,-4.49058 0.9392,-4.66125 -0.1736,-0.17067 -6.4902,2.76009 -14.0368,6.5128 -13.0824,6.50545 -23.7743,14.99031 -25.6756,20.37571 -0.5484,1.55312 -7.4065,9.89823 -14.2321,17.31784 -3.1341,3.40679 -7.16,8.35679 -8.9465,11 -1.7865,2.64321 -5.5379,7.36125 -8.3365,10.48452 -14.4226,16.09625 -22.5882,26.02791 -22.5882,27.47353 0,0.34919 -3.6,4.38474 -8,8.96789 -4.4,4.58314 -8,8.82272 -8,9.42129 0,0.7674 -4.5038,0.88232 -15.2737,0.38974 -25.3935,-1.16141 -64.99583,1.13555 -71.22632,4.13118 -2.75,1.3222 -9.05,3.62995 -14,5.12833 -6.10582,1.84826 -9.80394,3.58207 -11.5,5.39164 -4.276,4.56215 -10,11.72142 -10,12.50745 0,0.41258 -2.82242,3.71117 -6.27205,7.33021 -3.44962,3.61903 -6.93712,7.6058 -7.75,8.85949 -1.44767,2.23273 -1.54243,2.14054 -4.62551,-4.5 z m 113.64758,-13.23609 c 0,-1.29405 5.5045,-5.04334 7.4043,-5.04334 2.1983,0 2.0037,1.71129 -0.337,2.96397 -3.7671,2.01608 -7.0673,2.98709 -7.0673,2.07937 z M 278.45591,697.74847 c -2.97969,-2.34382 -3.29747,-4.74539 -1.17185,-8.8559 3.20155,-6.19111 13.00701,-5.22588 15.57686,1.53336 2.69162,7.07948 -7.88134,12.45406 -14.40501,7.32254 z M 1133.6336,475.13794 c 0.7219,-0.28887 1.5844,-0.25335 1.9167,0.0789 0.3323,0.33229 -0.2584,0.56864 -1.3125,0.52522 -1.165,-0.048 -1.4019,-0.28494 -0.6042,-0.60416 z"
       id="path8"
       sodipodi:nodetypes="csssscssssssssssssccsssssssssssssssssssssssssssssssssssssscsssssssssssssssssssssssssssssssssssssssssssccsssssssscsssssssscssssssscsssssssssssssssssssssscssssscssssssssssccsssssssssssss" />
    <path
       style="fill:#61a5e4"
       d="m 675.32107,1028.7587 c -91.7625,-8.5048 -169.2286,-42.52933 -234.4413,-102.97068 -17.5539,-16.26953 -44.88048,-47.26187 -49.75434,-56.42869 -1.90158,-3.5765 -2.56918,-4.00242 13.33294,8.50633 12.0702,9.49447 18.1984,13.82055 23.2422,16.40741 l 3.3795,1.73327 5.9576,-6.60101 c 3.2767,-3.63055 7.8612,-9.18474 10.1878,-12.34264 2.3265,-3.1579 6.715,-8.44164 9.7521,-11.74164 3.0371,-3.3 7.0568,-8.09238 8.9327,-10.64973 1.8759,-2.55735 5.7876,-7.35998 8.6926,-10.67251 5.0555,-5.76474 5.184,-6.05022 3,-6.66312 -1.255,-0.35219 -3.1818,-1.02021 -4.2818,-1.48448 -4.905,-2.07025 -10.5,-3.97634 -10.5,-3.57709 0,0.24028 -2.4879,-0.66336 -5.5285,-2.0081 -3.0407,-1.34473 -6.1907,-2.44497 -7,-2.44497 -0.8094,0 -1.4715,-0.45 -1.4715,-1 0,-0.55 -0.8735,-1 -1.941,-1 -3.3007,0 -3.3285,-1.87193 -0.089,-5.9625 l 3.1103,-3.92702 -8.2903,-6.16341 c -20.4077,-15.17209 -25.6885,-15.27262 -61.29032,-1.1668 -10.6121,4.20463 -20.76587,7.61347 -23,7.72159 -2.2,0.10647 -7.95388,1.36488 -12.7864,2.79647 -24.80168,7.34726 -44.18411,5.47658 -63.44665,-6.12351 -15.79296,-9.51066 -24.85268,-7.74211 -57.12348,11.15115 -19.25938,11.2756 -28.19904,15.19905 -38.14878,16.7428 -18.93829,2.93838 -38.06477,-7.15082 -54.23756,-28.61026 -10.72144,-14.22612 -19.18847,-18.78814 -40.757126,-21.95988 -25.04208,-3.68252 -34,-8.03643 -34,-16.52536 0,-13.57181 29.73632,-34.6951 76.999996,-54.69718 22.55383,-9.54482 92.38947,-34.21996 93.55389,-33.05554 0.23571,0.23572 -6.87998,3.50927 -15.81266,7.27457 -53.82809,22.68955 -92.74123,48.34383 -92.74123,61.14153 0,9.85867 20.35707,16.51054 43.74599,14.29443 17.4187,-1.65043 29.18132,-4.60605 69.25401,-17.40156 36.07675,-11.51958 52.3521,-12.37022 84.89932,-4.4373 4.73037,1.15297 9.89078,2.08248 11.46756,2.0656 1.57679,-0.0169 9.45179,1.92898 17.5,4.32414 35.43406,10.54525 33.23403,10.8256 57.38044,-7.31198 18.7607,-14.09216 26.1186,-18.43155 38.5862,-22.75654 20.4924,-7.1088 36.7596,-8.84754 50.6665,-5.41557 32.9043,8.12018 51.8875,5.08813 87.5,-13.97576 34.6307,-18.53832 47.124,-20.22435 87.5,-11.80853 32.0225,6.67466 48.1887,6.11585 81.9004,-2.83104 30.5658,-8.11197 44.742,-15.65263 82.9284,-44.1117 25.2079,-18.78659 34.9044,-20.5465 89.3232,-16.21205 43.3291,3.45116 69.0703,-0.49595 99.14123,-15.20218 13.2018,-6.45635 49.2763,-29.89032 50.3318,-32.69551 2.3729,-6.306 1.3599,-55.49465 -1.7089,-82.98626 -0.8795,-7.87883 -1.3786,-14.54572 -1.109,-14.8153 2.4828,-2.48282 19.5042,53.65922 24.7521,81.64046 1.1863,6.325 2.6134,12.0625 3.1713,12.75 2.1981,2.70863 49.0165,1.003 79.2695,-2.88786 34.1681,-4.39437 56.7861,-12.79663 63.3401,-23.5299 20.9103,-34.24418 23.463,-36.69628 45.6599,-43.86103 17.2204,-5.55842 24.4886,-12.00993 24.4963,-21.74355 0.018,-23.10389 -53.0064,-27.62351 -153.8574,-13.11424 -9.5486,1.37374 -17.5352,2.32363 -17.7479,2.11087 -1.2198,-1.21974 61.0834,-14.59962 86.8132,-18.64351 69.8213,-10.97368 126.4995,-13.18987 154.4572,-6.0395 43.8786,11.22225 44.2741,51.16633 0.767,77.45872 -19.3188,11.67487 -26.4564,21.93952 -37.2823,53.61633 -10.247,29.98328 -17.9139,39.80883 -35.6985,45.74992 -20.27,6.77137 -43.2871,4.58627 -92.4076,-8.7726 -27.7773,-7.55435 -32.6822,-8.42097 -44.887,-7.93076 -21.4005,0.85956 -31.0241,11.16315 -44.6802,47.83711 -23.5071,63.12874 -46.0374,85.37339 -86.4728,85.37618 -6.325,4.4e-4 -14.2,-0.5467 -17.5,-1.21587 -3.3,-0.66916 -9.825,-1.90682 -14.5,-2.75035 -4.675,-0.84353 -25.60003,-5.76558 -46.50003,-10.93789 -93.6964,-23.18788 -102.3316,-21.7258 -136.0046,23.02793 -13.0111,17.29261 -20.5699,23.04528 -34.2924,26.09823 -22.4786,5.00103 -48.363,-2.85697 -112.871,-34.26543 -20.4414,-9.95279 -34.3497,-9.51867 -46.5275,1.45224 -4.4232,3.98485 -17.8045,20.15429 -17.8045,21.51424 0,1.81719 6.3646,-0.40726 19.0961,-6.67416 22.0989,-10.87788 27.0309,-9.65852 57.7215,14.27085 6.7747,5.28222 14.5372,11.30726 17.25,13.38899 2.7128,2.08173 4.9324,4.11911 4.9324,4.5275 0,1.32726 -3.8381,6.44078 -9.7879,13.04052 -1.8083,2.00586 -4.3859,5.75005 -5.728,8.32041 -1.3421,2.57037 -6.0983,8.19537 -10.5693,12.5 -4.471,4.30464 -10.6418,11.20161 -13.7128,15.32661 -3.0711,4.125 -7.8604,10.01058 -10.6429,13.07906 -2.7825,3.06849 -7.0841,8.19666 -9.5591,11.39595 -2.475,3.19928 -6.975,8.61053 -10,12.02499 -3.025,3.41446 -7.525,8.81446 -10,12 -2.475,3.18554 -6.975,8.58554 -10,12 -3.025,3.41446 -7.525,8.81446 -10,12 -2.475,3.18554 -6.975,8.58554 -10,12 -3.025,3.41446 -7.525,8.80781 -10,11.98522 -2.475,3.17741 -7.3585,8.95364 -10.8522,12.83607 -7.4747,8.30636 -8.2152,7.46547 9.8522,11.1881 47.0665,9.69766 116.1467,6.92188 166.5,-6.69031 8.25,-2.23026 17.9196,-4.67584 21.4881,-5.43463 9.5929,-2.03983 44.8985,-15.69452 58.4336,-22.59958 6.0586,-3.0909 9.0538,-3.69818 13.259,-2.6883 33.8987,8.14078 104.3696,-19.02403 177.06933,-68.25588 5.6375,-3.81769 10.25,-6.68468 10.25,-6.3711 0,0.93727 -4.9262,8.56416 -10.354,16.03041 -66.85843,91.96791 -162.11283,148.21725 -274.42633,162.05355 -15.2029,1.8729 -62.2822,2.7223 -76.7197,1.3841 z M 87.064644,836.27409 c -10.60237,-2.85478 -17.46971,-11.42405 -13.84945,-17.28175 2.01156,-3.25478 16.63714,-3.82329 23.43825,-0.91107 19.361286,8.29048 11.192846,23.78846 -9.5888,18.19282 z M 994.82107,795.34337 c 0,-0.69579 3.8436,-7.02073 8.54153,-14.05542 4.6978,-7.03468 10.0972,-15.57232 11.9987,-18.97252 5.3025,-9.48172 5.5636,-9.62443 15.5147,-8.48043 4.6448,0.53398 11.906,0.97429 16.1361,0.97846 4.5038,0.004 7.9725,0.46316 8.3704,1.10692 1.5086,2.44096 -20.0726,21.47525 -33.814,29.82342 -11.4514,6.95699 -26.74743,12.44667 -26.74743,9.59957 z m 208.38873,-51.01071 c -25.3759,-5.52008 -34.3438,-26.93258 -21.7164,-51.85169 8.0025,-15.79207 23.7152,-23.67594 40.3346,-20.23787 28.5502,5.90623 49.2524,32.95088 39.9433,52.18073 -7.5705,15.63872 -35.1263,25.00671 -58.5615,19.90883 z M 327.17349,733.10048 c -4.90892,-10.57317 -10.13033,-40.55383 -12.32689,-70.77943 -1.31044,-18.03209 -1.32365,-38.19773 -0.0256,-39 0.55,-0.33992 1,-3.52927 1,-7.08746 0,-17.12225 5.10703,-51.18899 11.45519,-76.41254 50.73142,-201.57436 252.06073,-328.324 455.91263,-287.02606 23.7688,4.81526 57.2771,14.55455 65.8371,19.13574 1.0815,0.5788 2.1781,0.8406 2.437,0.58177 0.2588,-0.25882 -2.7076,-1.71747 -6.5919,-3.24145 -3.8844,-1.52398 -6.8841,-2.94929 -6.666,-3.16737 0.7419,-0.74185 18.067,6.48969 34.7168,14.49086 19.1114,9.18409 17.8655,7.52004 17.8855,23.88854 0.045,37.02784 -14.6575,58.22611 -53.3253,76.8836 -19.0309,9.18254 -32.0023,12.65576 -67.411,18.04989 -6.1076,0.93042 -3.1252,8.55004 4.6973,12.00133 l 3.8993,1.72037 -3.1733,3.96779 c -1.7453,2.18228 -5.6483,6.77023 -8.6733,10.19545 -3.025,3.42521 -7.525,8.81781 -10,11.98355 -5.4546,6.97694 -12.6205,15.56768 -20,23.97675 -3.025,3.44704 -7.525,8.88495 -10,12.08423 -2.475,3.19929 -6.7766,8.32746 -9.5591,11.39595 -2.7826,3.06848 -7.5755,8.95406 -10.651,13.07906 -3.0755,4.125 -7.2582,9.075 -9.2949,11 -2.0367,1.925 -5.8546,6.65 -8.4842,10.5 -2.6296,3.85 -5.9461,8.07991 -7.3699,9.3998 -2.9422,2.72747 -2.5246,3.34046 -5.5928,-8.20912 -5.3716,-20.22054 -15.822,-30.48485 -31.3677,-30.80922 -8.2907,-0.17299 -7.1902,-1.34623 -14.6513,15.61854 -3.3864,7.7 -9.0794,19.57064 -12.651,26.37921 -4.4745,8.5295 -5.9574,12.17333 -4.7687,11.71718 7.7629,-2.97892 19.6258,-1.1683 24.1922,3.69242 7.2021,7.6663 8.1974,24.82189 1.891,32.5939 -1.7559,2.16401 -5.2176,6.51635 -7.6926,9.67187 -2.475,3.15552 -6.975,8.53096 -10,11.94542 -3.025,3.41446 -7.525,8.82571 -10,12.02499 -7.6593,9.90066 -15.1736,17.47501 -17.3365,17.47501 -6.5575,0 -13.6175,-6.96187 -16.7326,-16.5 -1.6699,-5.11282 -1.7042,-23.63148 -0.054,-29.35094 0.6902,-2.39302 1.1129,-4.49058 0.9392,-4.66125 -0.1736,-0.17067 -6.4902,2.76009 -14.0368,6.5128 -13.0824,6.50545 -23.7743,14.99031 -25.6756,20.37571 -0.5484,1.55312 -7.4065,9.89823 -14.2321,17.31784 -3.1341,3.40679 -7.16,8.35679 -8.9465,11 -1.7865,2.64321 -5.5379,7.36125 -8.3365,10.48452 -14.4226,16.09625 -22.5882,26.02791 -22.5882,27.47353 0,0.34919 -3.6,4.38474 -8,8.96789 -4.4,4.58314 -8,8.82272 -8,9.42129 0,0.7674 -4.5038,0.88232 -15.2737,0.38974 -25.3935,-1.16141 -64.99583,1.13555 -71.22632,4.13118 -2.75,1.3222 -9.05,3.62995 -14,5.12833 -6.10582,1.84826 -9.80394,3.58207 -11.5,5.39164 -4.276,4.56215 -10,11.72142 -10,12.50745 0,0.41258 -2.82242,3.71117 -6.27205,7.33021 -3.44962,3.61903 -6.93712,7.6058 -7.75,8.85949 -1.44767,2.23273 -1.54243,2.14054 -4.62551,-4.5 z M 595.32097,562.09985 c 3.0112,-3.65055 5.2444,-6.86782 4.9627,-7.14949 -0.7626,-0.76258 -11.3856,9.93184 -13.1003,13.18834 -2.5517,4.846 1.8593,1.57268 8.1376,-6.03885 z m -127.4233,2.28971 c 14.2475,-3.01452 43.2621,-16.8395 82.5986,-39.35684 36.1416,-20.68844 54.2983,-29.14421 72.9534,-33.97519 l 10.8592,-2.81215 3.2267,-8.96217 c 1.7746,-4.92919 5.0758,-14.36216 7.336,-20.96216 13.3277,-38.91926 32.49,-52.9489 78.4495,-57.43662 35.8333,-3.49895 32.515,-2.83783 37.3086,-7.43308 2.3697,-2.27166 5.6035,-6.83452 7.1862,-10.13968 1.5827,-3.30515 6.781,-12.08015 11.5518,-19.5 4.7708,-7.41984 10.2317,-16.58072 12.1352,-20.35751 1.9036,-3.77679 4.5138,-7.91969 5.8006,-9.20643 1.9633,-1.96327 3.5652,-5.92753 3.7015,-9.16003 0.018,-0.42166 0.6456,-2.34165 1.3953,-4.26665 3.3901,-8.70594 4.3943,-27.2211 2.0066,-37 -2.1421,-8.7734 -7.1545,-20.42584 -5.8493,-13.59811 0.6191,3.23868 -1.4018,6.382 -10.0824,15.68209 -3.7653,4.03396 -8.2256,9.37782 -9.9118,11.87524 -1.6862,2.49743 -5.3556,7.05136 -8.1541,10.11984 -2.7985,3.06849 -7.1132,8.20793 -9.5882,11.42099 -2.475,3.21306 -6.525,8.02134 -9,10.68506 l -4.5,4.84312 -13.064,-1.01317 c -7.1853,-0.55725 -24.2853,-3.06074 -38,-5.56332 -13.9892,-2.55265 -29.7726,-4.80825 -35.9534,-5.13809 l -11.0173,-0.58794 -3.8974,5.88714 c -2.1435,3.23793 -6.2638,8.36215 -9.1561,11.38715 -2.8923,3.025 -7.5482,8.60578 -10.3464,12.40173 -2.7982,3.79594 -7.6701,9.72532 -10.8265,13.1764 -3.1564,3.45107 -7.3139,8.40579 -9.2389,11.0105 -1.925,2.6047 -5.975,7.52215 -9,10.92766 -3.025,3.4055 -7.525,8.79817 -10,11.98371 -2.475,3.18554 -6.975,8.58554 -10,12 -3.025,3.41446 -7.525,8.82571 -10,12.02499 -2.475,3.19929 -6.7678,8.32746 -9.5394,11.39595 -2.7717,3.06848 -7.042,8.27906 -9.4896,11.57906 -2.4476,3.3 -6.8724,8.56394 -9.8328,11.69764 -2.9604,3.1337 -6.5241,7.4087 -7.9194,9.5 -1.3952,2.0913 -5.3346,6.95745 -8.7541,10.81368 -3.4195,3.85622 -7.7844,9.06432 -9.6997,11.57356 -5.1782,6.78378 -6.6677,8.56333 -13.5396,16.17565 -3.4511,3.82288 -7.6864,9.04066 -9.4118,11.59508 -1.7255,2.55441 -5.4269,7.15497 -8.2254,10.22345 -2.7985,3.06849 -7.1132,8.19666 -9.5882,11.39595 -2.475,3.19928 -6.975,8.60427 -10,12.01109 -3.025,3.40682 -6.7567,7.84115 -8.2927,9.85406 -2.2862,2.99626 -3.4648,3.67791 -6.5,3.75952 -3.379,0.0908 -3.4859,0.17529 -1.2073,0.95346 3.1338,1.07024 14.4391,0.34292 23.0766,-1.48463 z m 387.9234,-290.56851 c -0.825,-0.53316 -1.95,-0.96937 -2.5,-0.96937 -0.55,0 -0.325,0.43621 0.5,0.96937 0.825,0.53316 1.95,0.96937 2.5,0.96937 0.55,0 0.325,-0.43621 -0.5,-0.96937 z m -415,446.04334 c 0,-1.29405 5.5045,-5.04334 7.4043,-5.04334 2.1983,0 2.0037,1.71129 -0.337,2.96397 -3.7671,2.01608 -7.0673,2.98709 -7.0673,2.07937 z M 278.45591,697.74847 c -2.97969,-2.34382 -3.29747,-4.74539 -1.17185,-8.8559 3.20155,-6.19111 13.00701,-5.22588 15.57686,1.53336 2.69162,7.07948 -7.88134,12.45406 -14.40501,7.32254 z M 1133.6336,475.13794 c 0.7219,-0.28887 1.5844,-0.25335 1.9167,0.0789 0.3323,0.33229 -0.2584,0.56864 -1.3125,0.52522 -1.165,-0.048 -1.4019,-0.28494 -0.6042,-0.60416 z m -317.00003,-216 c 0.7218,-0.28887 1.5844,-0.25335 1.9166,0.0789 0.3323,0.33229 -0.2583,0.56864 -1.3125,0.52522 -1.1649,-0.048 -1.4019,-0.28494 -0.6041,-0.60416 z m -7,-2 c 0.7218,-0.28887 1.5844,-0.25335 1.9166,0.0789 0.3323,0.33229 -0.2583,0.56864 -1.3125,0.52522 -1.1649,-0.048 -1.4019,-0.28494 -0.6041,-0.60416 z"
       id="path7"
       sodipodi:nodetypes="csssscssssssssssssccsssssssssssssssssssssssssssssssssssssscsssssssssssssssssssssssssssssssssssssssssssccsssssssscsssssssscsssssssssscssscsssssssssssssssssssssscssssscssssssssssccssssssscscssssssccssssssscssscssssssssssssssssssssssssssssssssssssssssssssssssssss" />
    <path
       style="fill:#ae57da"
       d="m 675.32107,1028.7587 c -91.7625,-8.5048 -169.2286,-42.52933 -234.4413,-102.97068 -17.5539,-16.26953 -44.88048,-47.26187 -49.75434,-56.42869 -1.90158,-3.5765 -2.56918,-4.00242 13.33294,8.50633 12.0702,9.49447 18.1984,13.82055 23.2422,16.40741 l 3.3795,1.73327 5.9576,-6.60101 c 3.2767,-3.63055 7.8612,-9.18474 10.1878,-12.34264 2.3265,-3.1579 6.715,-8.44164 9.7521,-11.74164 3.0371,-3.3 7.0568,-8.09238 8.9327,-10.64973 1.8759,-2.55735 5.7876,-7.35998 8.6926,-10.67251 5.0555,-5.76474 5.184,-6.05022 3,-6.66312 -1.255,-0.35219 -3.1818,-1.02021 -4.2818,-1.48448 -4.905,-2.07025 -10.5,-3.97634 -10.5,-3.57709 0,0.24028 -2.4879,-0.66336 -5.5285,-2.0081 -3.0407,-1.34473 -6.1907,-2.44497 -7,-2.44497 -0.8094,0 -1.4715,-0.45 -1.4715,-1 0,-0.55 -0.8735,-1 -1.941,-1 -3.3007,0 -3.3285,-1.87193 -0.089,-5.9625 l 3.1103,-3.92702 -8.2903,-6.16341 c -20.4077,-15.17209 -25.6885,-15.27262 -61.29032,-1.1668 -10.6121,4.20463 -20.76587,7.61347 -23,7.72159 -2.2,0.10647 -7.95388,1.36488 -12.7864,2.79647 -24.80168,7.34726 -44.18411,5.47658 -63.44665,-6.12351 -15.79296,-9.51066 -24.85268,-7.74211 -57.12348,11.15115 -19.25938,11.2756 -28.19904,15.19905 -38.14878,16.7428 -18.93829,2.93838 -38.06477,-7.15082 -54.23756,-28.61026 -10.72144,-14.22612 -19.18847,-18.78814 -40.757126,-21.95988 -25.04208,-3.68252 -34,-8.03643 -34,-16.52536 0,-13.57181 29.73632,-34.6951 76.999996,-54.69718 22.55383,-9.54482 92.38947,-34.21996 93.55389,-33.05554 0.23571,0.23572 -6.87998,3.50927 -15.81266,7.27457 -53.82809,22.68955 -92.74123,48.34383 -92.74123,61.14153 0,9.85867 20.35707,16.51054 43.74599,14.29443 17.4187,-1.65043 29.18132,-4.60605 69.25401,-17.40156 36.07675,-11.51958 52.3521,-12.37022 84.89932,-4.4373 4.73037,1.15297 9.89078,2.08248 11.46756,2.0656 1.57679,-0.0169 9.45179,1.92898 17.5,4.32414 35.43406,10.54525 33.23403,10.8256 57.38044,-7.31198 18.7607,-14.09216 26.1186,-18.43155 38.5862,-22.75654 20.4924,-7.1088 36.7596,-8.84754 50.6665,-5.41557 32.9043,8.12018 51.8875,5.08813 87.5,-13.97576 34.6307,-18.53832 47.124,-20.22435 87.5,-11.80853 32.0225,6.67466 48.1887,6.11585 81.9004,-2.83104 30.5658,-8.11197 44.742,-15.65263 82.9284,-44.1117 25.2079,-18.78659 34.9044,-20.5465 89.3232,-16.21205 43.3291,3.45116 69.0703,-0.49595 99.14123,-15.20218 13.2018,-6.45635 49.2763,-29.89032 50.3318,-32.69551 2.3729,-6.306 1.3599,-55.49465 -1.7089,-82.98626 -0.8795,-7.87883 -1.3786,-14.54572 -1.109,-14.8153 2.4828,-2.48282 19.5042,53.65922 24.7521,81.64046 1.1863,6.325 2.6134,12.0625 3.1713,12.75 2.1981,2.70863 49.0165,1.003 79.2695,-2.88786 34.1681,-4.39437 56.7861,-12.79663 63.3401,-23.5299 20.9103,-34.24418 23.463,-36.69628 45.6599,-43.86103 17.2204,-5.55842 24.4886,-12.00993 24.4963,-21.74355 0.018,-23.10389 -53.0064,-27.62351 -153.8574,-13.11424 -9.5486,1.37374 -17.5352,2.32363 -17.7479,2.11087 -1.2198,-1.21974 61.0834,-14.59962 86.8132,-18.64351 69.8213,-10.97368 126.4995,-13.18987 154.4572,-6.0395 43.8786,11.22225 44.2741,51.16633 0.767,77.45872 -19.3188,11.67487 -26.4564,21.93952 -37.2823,53.61633 -10.247,29.98328 -17.9139,39.80883 -35.6985,45.74992 -20.27,6.77137 -43.2871,4.58627 -92.4076,-8.7726 -27.7773,-7.55435 -32.6822,-8.42097 -44.887,-7.93076 -21.4005,0.85956 -31.0241,11.16315 -44.6802,47.83711 -23.5071,63.12874 -46.0374,85.37339 -86.4728,85.37618 -6.325,4.4e-4 -14.2,-0.5467 -17.5,-1.21587 -3.3,-0.66916 -9.825,-1.90682 -14.5,-2.75035 -4.675,-0.84353 -25.60003,-5.76558 -46.50003,-10.93789 -93.6964,-23.18788 -102.3316,-21.7258 -136.0046,23.02793 -13.0111,17.29261 -20.5699,23.04528 -34.2924,26.09823 -22.4786,5.00103 -48.363,-2.85697 -112.871,-34.26543 -20.4414,-9.95279 -34.3497,-9.51867 -46.5275,1.45224 -4.4232,3.98485 -17.8045,20.15429 -17.8045,21.51424 0,1.81719 6.3646,-0.40726 19.0961,-6.67416 22.0989,-10.87788 27.0309,-9.65852 57.7215,14.27085 6.7747,5.28222 14.5372,11.30726 17.25,13.38899 2.7128,2.08173 4.9324,4.11911 4.9324,4.5275 0,1.32726 -3.8381,6.44078 -9.7879,13.04052 -1.8083,2.00586 -4.3859,5.75005 -5.728,8.32041 -1.3421,2.57037 -6.0983,8.19537 -10.5693,12.5 -4.471,4.30464 -10.6418,11.20161 -13.7128,15.32661 -3.0711,4.125 -7.8604,10.01058 -10.6429,13.07906 -2.7825,3.06849 -7.0841,8.19666 -9.5591,11.39595 -2.475,3.19928 -6.975,8.61053 -10,12.02499 -3.025,3.41446 -7.525,8.81446 -10,12 -2.475,3.18554 -6.975,8.58554 -10,12 -3.025,3.41446 -7.525,8.81446 -10,12 -2.475,3.18554 -6.975,8.58554 -10,12 -3.025,3.41446 -7.525,8.80781 -10,11.98522 -2.475,3.17741 -7.3585,8.95364 -10.8522,12.83607 -7.4747,8.30636 -8.2152,7.46547 9.8522,11.1881 47.0665,9.69766 116.1467,6.92188 166.5,-6.69031 8.25,-2.23026 17.9196,-4.67584 21.4881,-5.43463 9.5929,-2.03983 44.8985,-15.69452 58.4336,-22.59958 6.0586,-3.0909 9.0538,-3.69818 13.259,-2.6883 33.8987,8.14078 104.3696,-19.02403 177.06933,-68.25588 5.6375,-3.81769 10.25,-6.68468 10.25,-6.3711 0,0.93727 -4.9262,8.56416 -10.354,16.03041 -66.85843,91.96791 -162.11283,148.21725 -274.42633,162.05355 -15.2029,1.8729 -62.2822,2.7223 -76.7197,1.3841 z M 87.064644,836.27409 c -10.60237,-2.85478 -17.46971,-11.42405 -13.84945,-17.28175 2.01156,-3.25478 16.63714,-3.82329 23.43825,-0.91107 19.361286,8.29048 11.192846,23.78846 -9.5888,18.19282 z M 994.82107,795.34337 c 0,-0.69579 3.8436,-7.02073 8.54153,-14.05542 4.6978,-7.03468 10.0972,-15.57232 11.9987,-18.97252 5.3025,-9.48172 5.5636,-9.62443 15.5147,-8.48043 4.6448,0.53398 11.906,0.97429 16.1361,0.97846 4.5038,0.004 7.9725,0.46316 8.3704,1.10692 1.5086,2.44096 -20.0726,21.47525 -33.814,29.82342 -11.4514,6.95699 -26.74743,12.44667 -26.74743,9.59957 z m 208.38873,-51.01071 c -25.3759,-5.52008 -34.3438,-26.93258 -21.7164,-51.85169 8.0025,-15.79207 23.7152,-23.67594 40.3346,-20.23787 28.5502,5.90623 49.2524,32.95088 39.9433,52.18073 -7.5705,15.63872 -35.1263,25.00671 -58.5615,19.90883 z M 278.45591,697.74847 c -2.97969,-2.34382 -3.29747,-4.74539 -1.17185,-8.8559 3.20155,-6.19111 13.00701,-5.22588 15.57686,1.53336 2.69162,7.07948 -7.88134,12.45406 -14.40501,7.32254 z m 88.1982,-12.8914 c -13.61672,-4.28076 -29.57112,-19.4066 -43.28671,-41.03872 -8.38914,-13.23128 -8.56682,-13.97573 -7.45306,-31.22765 17.19241,-266.30773 287.09973,-437.96141 534.71683,-340.06529 10.995,4.34691 10.8223,3.34415 3.2421,18.8238 -9.028,18.43609 -27.1848,33.58977 -46.0522,38.43521 -2.475,0.63562 -5.3488,1.40366 -6.3862,1.70676 -1.6426,0.47992 -1.7915,0.1817 -1.1531,-2.30952 0.4032,-1.57334 0.9359,-3.94273 1.1838,-5.26531 0.2479,-1.32259 0.8306,-3.12259 1.2949,-4 2.8764,-5.43564 3.8612,-27.02454 1.6464,-36.0953 -2.1421,-8.7734 -7.1545,-20.42584 -5.8493,-13.59811 0.6191,3.23868 -1.4018,6.382 -10.0824,15.68209 -3.7653,4.03396 -8.2256,9.37782 -9.9118,11.87524 -1.6862,2.49743 -5.3556,7.05136 -8.1541,10.11984 -2.7985,3.06849 -7.1132,8.20793 -9.5882,11.42099 -2.475,3.21306 -6.525,8.02134 -9,10.68506 l -4.5,4.84312 -13.064,-1.01317 c -7.1853,-0.55725 -24.2853,-3.06074 -38,-5.56332 -13.9892,-2.55265 -29.7726,-4.80825 -35.9534,-5.13809 l -11.0173,-0.58794 -3.8974,5.88714 c -2.1435,3.23793 -6.2638,8.36215 -9.1561,11.38715 -2.8923,3.025 -7.5482,8.60578 -10.3464,12.40173 -2.7982,3.79594 -7.6701,9.72532 -10.8265,13.1764 -3.1564,3.45107 -7.3139,8.40579 -9.2389,11.0105 -1.925,2.6047 -5.975,7.52215 -9,10.92766 -3.025,3.4055 -7.525,8.79817 -10,11.98371 -2.475,3.18554 -6.975,8.58554 -10,12 -3.025,3.41446 -7.525,8.82571 -10,12.02499 -2.475,3.19929 -6.7678,8.32746 -9.5394,11.39595 -2.7717,3.06848 -7.042,8.27906 -9.4896,11.57906 -2.4476,3.3 -6.8724,8.56394 -9.8328,11.69764 -2.9604,3.1337 -6.5241,7.4087 -7.9194,9.5 -1.3952,2.0913 -5.3346,6.95745 -8.7541,10.81368 -3.4195,3.85622 -7.7844,9.06432 -9.6997,11.57356 -5.1782,6.78378 -6.6677,8.56333 -13.5396,16.17565 -3.4511,3.82288 -7.6864,9.04066 -9.4118,11.59508 -1.7255,2.55441 -5.4269,7.15497 -8.2254,10.22345 -2.7985,3.06849 -7.1132,8.19666 -9.5882,11.39595 -2.475,3.19928 -6.975,8.60427 -10,12.01109 -3.025,3.40682 -6.7567,7.84115 -8.2927,9.85406 -2.2923,3.00419 -3.4568,3.67524 -6.5,3.74579 l -3.7073,0.086 3,0.95519 c 9.8411,3.13337 29.83,-2.08198 56.25,-14.67627 7.2875,-3.47393 13.25,-6.14509 13.25,-5.9359 0,0.68782 -16.2484,9.14955 -30,15.62318 -13.8666,6.52777 -18,9.41825 -18,12.58736 0,0.99901 -3.6,5.53933 -8,10.08961 -4.4,4.55027 -8,8.92836 -8,9.72907 0,0.80072 -0.9,1.45585 -2,1.45585 -1.2506,0 -2,0.66667 -2,1.77924 0,0.97858 -0.9,2.42792 -2,3.22076 -1.1,0.79284 -2,1.95044 -2,2.57245 0,0.622 -1.35,2.54357 -3,4.27013 -1.65,1.72657 -3,3.66831 -3,4.31499 0,0.64667 -0.2631,0.91273 -0.5845,0.59125 -0.3215,-0.32149 -1.334,0.0258 -2.25,0.77181 -0.9161,0.74597 -3.6905,3.0098 -6.1655,5.03073 -6.6798,5.45429 -13.2139,13.58173 -18.5205,23.03666 -2.5967,4.62655 -5.1168,8.41194 -5.6004,8.41194 -0.4835,0 -0.8791,0.62942 -0.8791,1.3987 0,0.76929 -2.25,3.69656 -5.00002,6.50505 -2.75,2.80849 -5,5.58329 -5,6.16622 0,0.58293 -2.25,3.25145 -5,5.93003 -2.75,2.67858 -5,5.57437 -5,6.43508 0,0.89825 -0.85201,1.56492 -2,1.56492 -1.48592,0 -2,0.66667 -2,2.59362 0,1.71071 -0.64936,2.76343 -1.90755,3.09245 -1.04915,0.27436 -2.13202,1.35723 -2.40638,2.40638 -0.58616,2.24151 -0.54245,2.24183 -7.85301,-0.0564 z M 1133.6336,475.13794 c 0.7219,-0.28887 1.5844,-0.25335 1.9167,0.0789 0.3323,0.33229 -0.2584,0.56864 -1.3125,0.52522 -1.165,-0.048 -1.4019,-0.28494 -0.6042,-0.60416 z M 862.82107,235.80719 C 0,0 0,0 862.82107,235.80719 Z"
       id="path6"
       sodipodi:nodetypes="csssscssssssssssssccsssssssssssssssssssssssssssssssssssssscsssssssssssssssssssssssssssssssssssssssssssccsssssssscssssssssssssssssssssssssssssscssscsssssssssssssssssssssscssssssssssssssssssssssssssssssssssss" />
    <path
       style="fill:#28d4da"
       d="m 1212.9043,742.92295 c 0.8708,-0.55804 3.0829,-1.27882 4.9159,-1.60173 1.8329,-0.32292 3.7017,-0.81526 4.1529,-1.09408 0.4511,-0.27883 3.1029,-0.73043 5.8927,-1.00356 2.7899,-0.27314 6.1712,-0.91431 7.5139,-1.42482 1.3428,-0.51052 2.4414,-0.73431 2.4414,-0.49732 0,0.23699 1.835,-0.21652 4.0777,-1.0078 3.0644,-1.0812 3.9759,-1.1323 3.668,-0.20564 -0.7845,2.36125 -16.7402,6.9575 -25.7457,7.41641 -5.9809,0.30477 -8.0308,0.13244 -6.9168,-0.58146 z M 366.65411,684.85707 c -13.61672,-4.28076 -29.57112,-19.4066 -43.28671,-41.03872 -8.38914,-13.23128 -8.56682,-13.97573 -7.45306,-31.22765 17.19241,-266.30773 287.09973,-437.96141 534.71683,-340.06529 10.995,4.34691 10.8223,3.34415 3.2421,18.8238 -9.028,18.43609 -27.1848,33.58977 -46.0522,38.43521 -2.475,0.63562 -5.3488,1.40366 -6.3862,1.70676 -1.6426,0.47992 -1.7915,0.1817 -1.1531,-2.30952 0.4032,-1.57334 0.9359,-3.94273 1.1838,-5.26531 0.2479,-1.32259 0.8306,-3.12259 1.2949,-4 2.8764,-5.43564 3.8612,-27.02454 1.6464,-36.0953 -2.1421,-8.7734 -7.1545,-20.42584 -5.8493,-13.59811 0.6191,3.23868 -1.4018,6.382 -10.0824,15.68209 -3.7653,4.03396 -8.2256,9.37782 -9.9118,11.87524 -1.6862,2.49743 -5.3556,7.05136 -8.1541,10.11984 -2.7985,3.06849 -7.1132,8.20793 -9.5882,11.42099 -2.475,3.21306 -6.525,8.02134 -9,10.68506 l -4.5,4.84312 -13.064,-1.01317 c -7.1853,-0.55725 -24.2853,-3.06074 -38,-5.56332 -13.9892,-2.55265 -29.7726,-4.80825 -35.9534,-5.13809 l -11.0173,-0.58794 -3.8974,5.88714 c -2.1435,3.23793 -6.2638,8.36215 -9.1561,11.38715 -2.8923,3.025 -7.5482,8.60578 -10.3464,12.40173 -2.7982,3.79594 -7.6701,9.72532 -10.8265,13.1764 -3.1564,3.45107 -7.3139,8.40579 -9.2389,11.0105 -1.925,2.6047 -5.975,7.52215 -9,10.92766 -3.025,3.4055 -7.525,8.79817 -10,11.98371 -2.475,3.18554 -6.975,8.58554 -10,12 -3.025,3.41446 -7.525,8.82571 -10,12.02499 -2.475,3.19929 -6.7678,8.32746 -9.5394,11.39595 -2.7717,3.06848 -7.042,8.27906 -9.4896,11.57906 -2.4476,3.3 -6.8724,8.56394 -9.8328,11.69764 -2.9604,3.1337 -6.5241,7.4087 -7.9194,9.5 -1.3952,2.0913 -5.3346,6.95745 -8.7541,10.81368 -3.4195,3.85622 -7.7844,9.06432 -9.6997,11.57356 -5.1782,6.78378 -6.6677,8.56333 -13.5396,16.17565 -3.4511,3.82288 -7.6864,9.04066 -9.4118,11.59508 -1.7255,2.55441 -5.4269,7.15497 -8.2254,10.22345 -2.7985,3.06849 -7.1132,8.19666 -9.5882,11.39595 -2.475,3.19928 -6.975,8.60427 -10,12.01109 -3.025,3.40682 -6.7567,7.84115 -8.2927,9.85406 -2.2923,3.00419 -3.4568,3.67524 -6.5,3.74579 l -3.7073,0.086 3,0.95519 c 9.8411,3.13337 29.83,-2.08198 56.25,-14.67627 7.2875,-3.47393 13.25,-6.14509 13.25,-5.9359 0,0.68782 -16.2484,9.14955 -30,15.62318 -13.8666,6.52777 -18,9.41825 -18,12.58736 0,0.99901 -3.6,5.53933 -8,10.08961 -4.4,4.55027 -8,8.92836 -8,9.72907 0,0.80072 -0.9,1.45585 -2,1.45585 -1.2506,0 -2,0.66667 -2,1.77924 0,0.97858 -0.9,2.42792 -2,3.22076 -1.1,0.79284 -2,1.95044 -2,2.57245 0,0.622 -1.35,2.54357 -3,4.27013 -1.65,1.72657 -3,3.66831 -3,4.31499 0,0.64667 -0.2631,0.91273 -0.5845,0.59125 -0.3215,-0.32149 -1.334,0.0258 -2.25,0.77181 -0.9161,0.74597 -3.6905,3.0098 -6.1655,5.03073 -6.6798,5.45429 -13.2139,13.58173 -18.5205,23.03666 -2.5967,4.62655 -5.1168,8.41194 -5.6004,8.41194 -0.4835,0 -0.8791,0.62942 -0.8791,1.3987 0,0.76929 -2.25,3.69656 -5.00002,6.50505 -2.75,2.80849 -5,5.58329 -5,6.16622 0,0.58293 -2.25,3.25145 -5,5.93003 -2.75,2.67858 -5,5.57437 -5,6.43508 0,0.89825 -0.85201,1.56492 -2,1.56492 -1.48592,0 -2,0.66667 -2,2.59362 0,1.71071 -0.64936,2.76343 -1.90755,3.09245 -1.04915,0.27436 -2.13202,1.35723 -2.40638,2.40638 -0.58616,2.24151 -0.54245,2.24183 -7.85301,-0.0564 z"
       id="path5"
       sodipodi:nodetypes="ssssssssssssssssssssssssssscssscsssssssssssssssssssssscsssssssssssssssssssssssssssss" />
    <path
       style="fill:#33b5d9"
       d="m 1212.9043,742.92295 c 0.8708,-0.55804 3.0829,-1.27882 4.9159,-1.60173 1.8329,-0.32292 3.7017,-0.81526 4.1529,-1.09408 0.4511,-0.27883 3.1029,-0.73043 5.8927,-1.00356 2.7899,-0.27314 6.1712,-0.91431 7.5139,-1.42482 1.3428,-0.51052 2.4414,-0.73431 2.4414,-0.49732 0,0.23699 1.835,-0.21652 4.0777,-1.0078 3.0644,-1.0812 3.9759,-1.1323 3.668,-0.20564 -0.7845,2.36125 -16.7402,6.9575 -25.7457,7.41641 -5.9809,0.30477 -8.0308,0.13244 -6.9168,-0.58146 z M 366.65411,684.85707 c -13.61672,-4.28076 -29.57112,-19.4066 -43.28671,-41.03872 -8.38914,-13.23128 -8.56682,-13.97573 -7.45306,-31.22765 2.46838,-38.23486 10.42038,-76.4996 22.91571,-110.26965 9.97264,-26.95221 22.15256,-52.03957 25.31483,-52.14175 6.32505,-0.20437 32.72438,1.9291 43.17619,3.48931 l 12,1.79132 -0.058,3.93056 c -0.032,2.16181 -0.8764,10.00175 -1.8769,17.42209 -4.6394,34.40851 0.058,66.86985 11.4851,79.37333 13.863,15.16836 33.3319,13.85239 72.6995,-4.91403 7.2875,-3.47393 13.25,-6.14509 13.25,-5.9359 0,0.68782 -16.2484,9.14955 -30,15.62318 -13.8666,6.52777 -18,9.41825 -18,12.58736 0,0.99901 -3.6,5.53933 -8,10.08961 -4.4,4.55027 -8,8.92836 -8,9.72907 0,0.80072 -0.9,1.45585 -2,1.45585 -1.2506,0 -2,0.66667 -2,1.77924 0,0.97858 -0.9,2.42792 -2,3.22076 -1.1,0.79284 -2,1.95044 -2,2.57245 0,0.622 -1.35,2.54357 -3,4.27013 -1.65,1.72657 -3,3.66831 -3,4.31499 0,0.64667 -0.263,0.91273 -0.5845,0.59125 -0.3215,-0.32149 -1.334,0.0258 -2.25,0.77181 -0.916,0.74597 -3.6905,3.0098 -6.1655,5.03073 -6.6798,5.45429 -13.2139,13.58173 -18.5205,23.03666 -2.5967,4.62659 -5.1168,8.41198 -5.6004,8.41198 -0.4835,0 -0.8791,0.62942 -0.8791,1.3987 0,0.76929 -2.25,3.69656 -5.00002,6.50505 -2.75,2.80849 -5,5.58329 -5,6.16622 0,0.58293 -2.25,3.25145 -5,5.93003 -2.75,2.67858 -5,5.57437 -5,6.43508 0,0.89825 -0.85201,1.56492 -2,1.56492 -1.48592,0 -2,0.66667 -2,2.59362 0,1.71071 -0.64936,2.76343 -1.90755,3.09245 -1.04915,0.27436 -2.13202,1.35723 -2.40638,2.40638 -0.58616,2.24151 -0.54245,2.24183 -7.85301,-0.0564 z M 800.28177,329.18166 c 0.4032,-1.57334 0.9359,-3.94273 1.1838,-5.26531 0.2479,-1.32259 0.8306,-3.12259 1.2949,-4 1.3936,-2.63342 3.063,-15.48503 3.025,-23.28685 -0.073,-14.9009 -5.6222,-29.24419 -15.3056,-39.55845 -3.753,-3.99758 -4.0946,-4.00298 12.8937,0.20377 14.8013,3.6652 31.9582,9.20193 47.2576,15.25059 10.995,4.34691 10.8223,3.34415 3.2421,18.8238 -9.028,18.43609 -27.1848,33.58977 -46.0522,38.43521 -2.475,0.63562 -5.3488,1.40366 -6.3862,1.70676 -1.6426,0.47992 -1.7915,0.1817 -1.1531,-2.30952 z"
       id="path4"
       sodipodi:nodetypes="sssssssssscsssssccscssssssssssssssssssssssssssccssscsssssss" />
    <path
       style="fill:#624ab2"
       d="m 1212.9043,742.92295 c 0.8708,-0.55804 3.0829,-1.27882 4.9159,-1.60173 1.8329,-0.32292 3.7017,-0.81526 4.1529,-1.09408 0.4511,-0.27883 3.1029,-0.73043 5.8927,-1.00356 2.7899,-0.27314 6.1712,-0.91431 7.5139,-1.42482 1.3428,-0.51052 2.4414,-0.73431 2.4414,-0.49732 0,0.23699 1.835,-0.21652 4.0777,-1.0078 3.0644,-1.0812 3.9759,-1.1323 3.668,-0.20564 -0.7845,2.36125 -16.7402,6.9575 -25.7457,7.41641 -5.9809,0.30477 -8.0308,0.13244 -6.9168,-0.58146 z"
       id="path3"
       sodipodi:nodetypes="ssssssssss" />
  </g>
</svg>
